<svg width="25" height="24" viewBox="0 0 25 24" fill="none" xmlns="http://www.w3.org/2000/svg">
<mask id="mask0_49_1014" style="mask-type:alpha" maskUnits="userSpaceOnUse" x="2" y="1" width="21" height="21">
<path d="M3.62832 10.3311C3.40729 10.3311 3.19531 10.2433 3.03902 10.087C2.88273 9.93071 2.79492 9.71873 2.79492 9.4977V2.83214C2.79492 2.61111 2.88273 2.39913 3.03902 2.24284C3.19531 2.08655 3.40729 1.99874 3.62832 1.99874H10.2955C10.5166 1.99874 10.7286 2.08655 10.8849 2.24284C11.0411 2.39913 11.129 2.61111 11.129 2.83214V9.4977C11.129 9.71873 11.0411 9.93071 10.8849 10.087C10.7286 10.2433 10.5166 10.3311 10.2955 10.3311H3.62832ZM15.296 10.3311C15.0749 10.3311 14.863 10.2433 14.7067 10.087C14.5504 9.93071 14.4626 9.71873 14.4626 9.4977V2.83214C14.4626 2.61111 14.5504 2.39913 14.7067 2.24284C14.863 2.08655 15.0749 1.99874 15.296 1.99874H21.9615C22.1826 1.99874 22.3945 2.08655 22.5508 2.24284C22.7071 2.39913 22.7949 2.61111 22.7949 2.83214V9.4977C22.7949 9.71873 22.7071 9.93071 22.5508 10.087C22.3945 10.2433 22.1826 10.3311 21.9615 10.3311H15.296ZM3.62832 21.9987C3.40729 21.9987 3.19531 21.9109 3.03902 21.7546C2.88273 21.5984 2.79492 21.3864 2.79492 21.1653V14.4981C2.79492 14.2771 2.88273 14.0651 3.03902 13.9088C3.19531 13.7525 3.40729 13.6647 3.62832 13.6647H10.2955C10.5166 13.6647 10.7286 13.7525 10.8849 13.9088C11.0411 14.0651 11.129 14.2771 11.129 14.4981V21.1653C11.129 21.3864 11.0411 21.5984 10.8849 21.7546C10.7286 21.9109 10.5166 21.9987 10.2955 21.9987H3.62832ZM15.296 21.9987C15.0749 21.9987 14.863 21.9109 14.7067 21.7546C14.5504 21.5984 14.4626 21.3864 14.4626 21.1653V14.4981C14.4626 14.2771 14.5504 14.0651 14.7067 13.9088C14.863 13.7525 15.0749 13.6647 15.296 13.6647H21.9615C22.1826 13.6647 22.3945 13.7525 22.5508 13.9088C22.7071 14.0651 22.7949 14.2771 22.7949 14.4981V21.1653C22.7949 21.3864 22.7071 21.5984 22.5508 21.7546C22.3945 21.9109 22.1826 21.9987 21.9615 21.9987H15.296Z" fill="black"/>
</mask>
<g mask="url(#mask0_49_1014)">
<rect x="0.794922" y="-0.00233459" width="24" height="24" fill="#006FFD"/>
</g>
</svg>
