<svg width="18" height="23" viewBox="0 0 18 23" fill="none" xmlns="http://www.w3.org/2000/svg">
<path d="M0.490234 19.3906V9.76172C0.490234 7.74023 1.51562 6.73438 3.55664 6.73438H8.38086V14.0195C8.38086 14.4297 8.73242 14.7715 9.15234 14.7715C9.57227 14.7715 9.93359 14.4297 9.93359 14.0195V6.73438H8.38086V4.07812L8.43945 2.62305L7.89258 3.19922L6.37891 4.81055C6.24219 4.9668 6.02734 5.04492 5.8418 5.04492C5.43164 5.04492 5.13867 4.75195 5.13867 4.36133C5.13867 4.14648 5.22656 3.99023 5.37305 3.84375L8.58594 0.738281C8.79102 0.542969 8.95703 0.484375 9.15234 0.484375C9.35742 0.484375 9.52344 0.542969 9.71875 0.738281L12.9414 3.84375C13.0879 3.99023 13.166 4.14648 13.166 4.36133C13.166 4.75195 12.8633 5.04492 12.4531 5.04492C12.2676 5.04492 12.0625 4.9668 11.9258 4.81055L10.4219 3.19922L9.875 2.62305L9.93359 4.07812V6.73438H14.7578C16.7988 6.73438 17.8242 7.75 17.8242 9.76172V19.3906C17.8242 21.4023 16.7988 22.418 14.7578 22.418H3.55664C1.51562 22.418 0.490234 21.4121 0.490234 19.3906Z" fill="#006FFD"/>
</svg>
