<svg width="295" height="112" viewBox="0 0 295 112" fill="none" xmlns="http://www.w3.org/2000/svg">
<path d="M11.3409 4.72727H16.2045V20.9545C16.2045 22.4545 15.8674 23.7576 15.1932 24.8636C14.5265 25.9697 13.5985 26.822 12.4091 27.4205C11.2197 28.0189 9.83712 28.3182 8.26136 28.3182C6.85985 28.3182 5.58712 28.072 4.44318 27.5795C3.30682 27.0795 2.4053 26.322 1.73864 25.3068C1.07197 24.2841 0.742424 23 0.75 21.4545H5.64773C5.66288 22.0682 5.78788 22.5947 6.02273 23.0341C6.26515 23.4659 6.5947 23.7992 7.01136 24.0341C7.43561 24.2614 7.93561 24.375 8.51136 24.375C9.11742 24.375 9.62879 24.2462 10.0455 23.9886C10.4697 23.7235 10.7917 23.3371 11.0114 22.8295C11.2311 22.322 11.3409 21.697 11.3409 20.9545V4.72727ZM20.2727 28V4.72727H25.1932V23.9432H35.1705V28H20.2727ZM38.429 28V4.72727H47.6108C49.3759 4.72727 50.8797 5.06439 52.1222 5.73864C53.3646 6.4053 54.3116 7.33333 54.9631 8.52273C55.6222 9.70454 55.9517 11.0682 55.9517 12.6136C55.9517 14.1591 55.6184 15.5227 54.9517 16.7045C54.285 17.8864 53.3191 18.8068 52.054 19.4659C50.7964 20.125 49.2737 20.4545 47.4858 20.4545H41.6335V16.5114H46.6903C47.6373 16.5114 48.4176 16.3485 49.0312 16.0227C49.6525 15.6894 50.1146 15.2311 50.4176 14.6477C50.7282 14.0568 50.8835 13.3788 50.8835 12.6136C50.8835 11.8409 50.7282 11.1667 50.4176 10.5909C50.1146 10.0076 49.6525 9.55682 49.0312 9.23864C48.41 8.91288 47.6222 8.75 46.6676 8.75H43.3494V28H38.429ZM58.2614 8.78409V4.72727H77.375V8.78409H70.25V28H65.3864V8.78409H58.2614ZM97.412 6.08C97.1987 7.70133 96.9213 9.42933 96.58 11.264C96.2387 13.0987 95.78 14.9547 95.204 16.832C94.5853 18.9867 93.86 20.8427 93.028 22.4C92.196 23.9573 91.2787 25.1627 90.276 26.016C89.2947 26.848 88.2173 27.264 87.044 27.264C85.8707 27.264 84.7827 26.8693 83.78 26.08C82.7987 25.2693 82.0093 24.16 81.412 22.752C80.836 21.344 80.548 19.744 80.548 17.952C80.548 16.096 80.9213 14.3467 81.668 12.704C82.4147 11.0613 83.4493 9.61067 84.772 8.352C86.116 7.072 87.6733 6.06933 89.444 5.344C91.236 4.61867 93.1667 4.256 95.236 4.256C97.22 4.256 99.0013 4.576 100.58 5.216C102.18 5.856 103.545 6.74133 104.676 7.872C105.807 9.00267 106.671 10.3253 107.268 11.84C107.865 13.3547 108.164 14.9867 108.164 16.736C108.164 18.976 107.705 20.9813 106.788 22.752C105.871 24.5227 104.505 25.984 102.692 27.136C100.9 28.288 98.66 29.0773 95.972 29.504L93.572 25.696C94.1907 25.632 94.7347 25.5573 95.204 25.472C95.6733 25.3867 96.1213 25.2907 96.548 25.184C97.572 24.928 98.5213 24.5653 99.396 24.096C100.292 23.6053 101.071 23.008 101.732 22.304C102.393 21.5787 102.905 20.736 103.268 19.776C103.652 18.816 103.844 17.76 103.844 16.608C103.844 15.3493 103.652 14.1973 103.268 13.152C102.884 12.1067 102.319 11.2 101.572 10.432C100.825 9.64267 99.9187 9.04533 98.852 8.64C97.7853 8.21333 96.5587 8 95.172 8C93.4653 8 91.9613 8.30933 90.66 8.928C89.3587 9.52533 88.26 10.304 87.364 11.264C86.468 12.224 85.7853 13.2587 85.316 14.368C84.868 15.4773 84.644 16.5333 84.644 17.536C84.644 18.6027 84.772 19.4987 85.028 20.224C85.284 20.928 85.5933 21.4613 85.956 21.824C86.34 22.1653 86.7453 22.336 87.172 22.336C87.62 22.336 88.0573 22.112 88.484 21.664C88.932 21.1947 89.3693 20.4907 89.796 19.552C90.2227 18.6133 90.6493 17.4293 91.076 16C91.5667 14.464 91.9827 12.8213 92.324 11.072C92.6653 9.32267 92.9107 7.616 93.06 5.952L97.412 6.08ZM125.668 2.464C125.54 2.89067 125.412 3.41333 125.284 4.032C125.156 4.65067 125.06 5.13067 124.996 5.472C124.847 6.19733 124.655 7.08267 124.42 8.128C124.207 9.17333 123.961 10.2827 123.684 11.456C123.428 12.6293 123.161 13.7493 122.884 14.816C122.607 15.9467 122.265 17.1733 121.86 18.496C121.455 19.7973 121.017 21.1307 120.548 22.496C120.1 23.84 119.641 25.1307 119.172 26.368C118.703 27.584 118.244 28.672 117.796 29.632L113.348 28.128C113.817 27.3173 114.319 26.336 114.852 25.184C115.385 24.0107 115.897 22.752 116.388 21.408C116.9 20.064 117.369 18.7307 117.796 17.408C118.223 16.0853 118.585 14.8587 118.884 13.728C119.097 12.9813 119.3 12.2133 119.492 11.424C119.684 10.6347 119.855 9.86667 120.004 9.12C120.153 8.37333 120.281 7.68 120.388 7.04C120.516 6.37867 120.612 5.80267 120.676 5.312C120.74 4.71467 120.783 4.11733 120.804 3.52C120.825 2.92267 120.815 2.44267 120.772 2.08L125.668 2.464ZM117.508 7.232C118.809 7.232 120.164 7.168 121.572 7.04C122.98 6.912 124.399 6.73067 125.828 6.496C127.257 6.26133 128.676 5.984 130.084 5.664V9.664C128.761 9.96267 127.353 10.2187 125.86 10.432C124.367 10.6453 122.895 10.816 121.444 10.944C119.993 11.0507 118.66 11.104 117.444 11.104C116.676 11.104 115.983 11.0933 115.364 11.072C114.745 11.0293 114.148 10.9973 113.572 10.976L113.476 6.976C114.308 7.06133 115.023 7.12533 115.62 7.168C116.217 7.21067 116.847 7.232 117.508 7.232ZM127.556 12.128C128.452 12.0427 129.444 11.968 130.532 11.904C131.62 11.84 132.676 11.808 133.7 11.808C134.617 11.808 135.545 11.8293 136.484 11.872C137.444 11.9147 138.393 11.9893 139.332 12.096L139.236 15.936C138.447 15.8293 137.572 15.744 136.612 15.68C135.673 15.5947 134.713 15.552 133.732 15.552C132.644 15.552 131.588 15.584 130.564 15.648C129.561 15.6907 128.559 15.776 127.556 15.904V12.128ZM129.284 20.192C129.156 20.64 129.049 21.1093 128.964 21.6C128.879 22.0693 128.836 22.4853 128.836 22.848C128.836 23.1893 128.911 23.5093 129.06 23.808C129.209 24.1067 129.444 24.3733 129.764 24.608C130.084 24.8213 130.521 24.992 131.076 25.12C131.652 25.248 132.367 25.312 133.22 25.312C134.308 25.312 135.396 25.2587 136.484 25.152C137.593 25.024 138.724 24.8533 139.876 24.64L139.716 28.736C138.82 28.8427 137.828 28.9387 136.74 29.024C135.652 29.1307 134.468 29.184 133.188 29.184C130.5 29.184 128.441 28.7467 127.012 27.872C125.604 26.976 124.9 25.7173 124.9 24.096C124.9 23.3707 124.964 22.6347 125.092 21.888C125.22 21.1413 125.348 20.448 125.476 19.808L129.284 20.192ZM164.868 2.912C164.804 3.18933 164.719 3.53067 164.612 3.936C164.527 4.34133 164.441 4.74667 164.356 5.152C164.271 5.55733 164.196 5.888 164.132 6.144C163.791 7.57333 163.407 9.03467 162.98 10.528C162.553 12 162.073 13.4613 161.54 14.912C161.007 16.3627 160.409 17.7173 159.748 18.976C159.108 20.2347 158.393 21.3547 157.604 22.336C156.644 23.5733 155.737 24.5867 154.884 25.376C154.052 26.1653 153.22 26.752 152.388 27.136C151.556 27.4987 150.649 27.68 149.668 27.68C148.793 27.68 147.961 27.4453 147.172 26.976C146.404 26.4853 145.775 25.7707 145.284 24.832C144.815 23.872 144.58 22.6987 144.58 21.312C144.58 19.8827 144.836 18.464 145.348 17.056C145.881 15.6267 146.607 14.304 147.524 13.088C148.463 11.872 149.561 10.8587 150.82 10.048C152.527 8.93867 154.201 8.16 155.844 7.712C157.487 7.264 159.161 7.04 160.868 7.04C163.087 7.04 165.049 7.50933 166.756 8.448C168.463 9.36533 169.796 10.656 170.756 12.32C171.716 13.984 172.196 15.936 172.196 18.176C172.196 20.416 171.695 22.3573 170.692 24C169.711 25.6213 168.356 26.9227 166.628 27.904C164.9 28.864 162.927 29.5147 160.708 29.856L158.244 26.144C160.015 25.9947 161.519 25.6747 162.756 25.184C164.015 24.6933 165.028 24.0747 165.796 23.328C166.585 22.5813 167.161 21.7493 167.524 20.832C167.887 19.9147 168.068 18.9547 168.068 17.952C168.068 16.5013 167.748 15.232 167.108 14.144C166.489 13.0347 165.615 12.1707 164.484 11.552C163.353 10.912 162.02 10.592 160.484 10.592C158.799 10.592 157.295 10.8693 155.972 11.424C154.649 11.9573 153.433 12.6293 152.324 13.44C151.492 14.0373 150.777 14.7627 150.18 15.616C149.583 16.448 149.124 17.3333 148.804 18.272C148.484 19.2107 148.324 20.1173 148.324 20.992C148.324 21.76 148.484 22.3787 148.804 22.848C149.145 23.3173 149.593 23.552 150.148 23.552C150.553 23.552 150.969 23.4347 151.396 23.2C151.823 22.944 152.249 22.6133 152.676 22.208C153.103 21.7813 153.529 21.2907 153.956 20.736C154.383 20.1813 154.809 19.5947 155.236 18.976C155.833 18.0587 156.399 17.0347 156.932 15.904C157.465 14.7733 157.945 13.5893 158.372 12.352C158.82 11.1147 159.193 9.92 159.492 8.768C159.791 7.59467 160.025 6.51733 160.196 5.536C160.303 5.06667 160.367 4.53333 160.388 3.936C160.431 3.33867 160.452 2.85867 160.452 2.496L164.868 2.912ZM151.364 3.968C151.471 4.50133 151.577 5.024 151.684 5.536C151.812 6.048 151.94 6.54933 152.068 7.04C152.303 7.91467 152.58 8.864 152.9 9.888C153.22 10.8907 153.561 11.8933 153.924 12.896C154.308 13.8987 154.692 14.8267 155.076 15.68C155.46 16.512 155.844 17.2267 156.228 17.824C156.783 18.6773 157.412 19.5733 158.116 20.512C158.82 21.4293 159.545 22.2507 160.292 22.976L157.06 25.536C156.42 24.832 155.844 24.16 155.332 23.52C154.841 22.8587 154.329 22.1227 153.796 21.312C153.327 20.5867 152.847 19.744 152.356 18.784C151.887 17.824 151.417 16.7787 150.948 15.648C150.5 14.5173 150.063 13.3547 149.636 12.16C149.231 10.9653 148.836 9.78133 148.452 8.608C148.281 8.032 148.089 7.47733 147.876 6.944C147.684 6.41067 147.449 5.856 147.172 5.28L151.364 3.968ZM193.412 6.08C193.199 7.70133 192.921 9.42933 192.58 11.264C192.239 13.0987 191.78 14.9547 191.204 16.832C190.585 18.9867 189.86 20.8427 189.028 22.4C188.196 23.9573 187.279 25.1627 186.276 26.016C185.295 26.848 184.217 27.264 183.044 27.264C181.871 27.264 180.783 26.8693 179.78 26.08C178.799 25.2693 178.009 24.16 177.412 22.752C176.836 21.344 176.548 19.744 176.548 17.952C176.548 16.096 176.921 14.3467 177.668 12.704C178.415 11.0613 179.449 9.61067 180.772 8.352C182.116 7.072 183.673 6.06933 185.444 5.344C187.236 4.61867 189.167 4.256 191.236 4.256C193.22 4.256 195.001 4.576 196.58 5.216C198.18 5.856 199.545 6.74133 200.676 7.872C201.807 9.00267 202.671 10.3253 203.268 11.84C203.865 13.3547 204.164 14.9867 204.164 16.736C204.164 18.976 203.705 20.9813 202.788 22.752C201.871 24.5227 200.505 25.984 198.692 27.136C196.9 28.288 194.66 29.0773 191.972 29.504L189.572 25.696C190.191 25.632 190.735 25.5573 191.204 25.472C191.673 25.3867 192.121 25.2907 192.548 25.184C193.572 24.928 194.521 24.5653 195.396 24.096C196.292 23.6053 197.071 23.008 197.732 22.304C198.393 21.5787 198.905 20.736 199.268 19.776C199.652 18.816 199.844 17.76 199.844 16.608C199.844 15.3493 199.652 14.1973 199.268 13.152C198.884 12.1067 198.319 11.2 197.572 10.432C196.825 9.64267 195.919 9.04533 194.852 8.64C193.785 8.21333 192.559 8 191.172 8C189.465 8 187.961 8.30933 186.66 8.928C185.359 9.52533 184.26 10.304 183.364 11.264C182.468 12.224 181.785 13.2587 181.316 14.368C180.868 15.4773 180.644 16.5333 180.644 17.536C180.644 18.6027 180.772 19.4987 181.028 20.224C181.284 20.928 181.593 21.4613 181.956 21.824C182.34 22.1653 182.745 22.336 183.172 22.336C183.62 22.336 184.057 22.112 184.484 21.664C184.932 21.1947 185.369 20.4907 185.796 19.552C186.223 18.6133 186.649 17.4293 187.076 16C187.567 14.464 187.983 12.8213 188.324 11.072C188.665 9.32267 188.911 7.616 189.06 5.952L193.412 6.08ZM216.708 3.008H237.124V6.112H216.708V3.008ZM216.42 21.568H237.412V24.544H216.42V21.568ZM221.38 11.136V13.248H232.132V11.136H221.38ZM218.02 8.48H235.684V15.904H218.02V8.48ZM217.604 17.312H236.164V20.192H217.604V17.312ZM224.772 9.984H228.516V18.464C228.516 19.424 228.42 20.384 228.228 21.344C228.057 22.304 227.737 23.2427 227.268 24.16C226.82 25.056 226.18 25.92 225.348 26.752C224.537 27.5627 223.513 28.32 222.276 29.024C221.039 29.728 219.545 30.3467 217.796 30.88C217.647 30.624 217.433 30.3147 217.156 29.952C216.9 29.5893 216.623 29.2267 216.324 28.864C216.025 28.5013 215.737 28.2133 215.46 28C217.103 27.5947 218.479 27.1147 219.588 26.56C220.719 26.0053 221.625 25.408 222.308 24.768C223.012 24.128 223.535 23.4667 223.876 22.784C224.239 22.08 224.473 21.3653 224.58 20.64C224.708 19.8933 224.772 19.1573 224.772 18.432V9.984ZM228.996 22.656C229.743 23.9573 230.863 25.0453 232.356 25.92C233.849 26.7733 235.62 27.3707 237.668 27.712C237.412 27.9467 237.124 28.2453 236.804 28.608C236.505 28.992 236.228 29.376 235.972 29.76C235.716 30.1653 235.492 30.528 235.3 30.848C233.06 30.2933 231.151 29.3867 229.572 28.128C227.993 26.8907 226.745 25.344 225.828 23.488L228.996 22.656ZM221.028 0.799999H224.548V7.968H221.028V0.799999ZM228.644 0.799999H232.228V7.968H228.644V0.799999ZM209.06 3.808L211.204 0.927999C211.823 1.16267 212.484 1.46133 213.188 1.824C213.913 2.16533 214.585 2.528 215.204 2.912C215.844 3.296 216.367 3.66933 216.772 4.032L214.532 7.2C214.148 6.816 213.647 6.42133 213.028 6.016C212.431 5.61067 211.78 5.20533 211.076 4.8C210.372 4.39467 209.7 4.064 209.06 3.808ZM207.396 12.448L209.476 9.536C210.116 9.77067 210.788 10.048 211.492 10.368C212.196 10.688 212.857 11.04 213.476 11.424C214.116 11.7867 214.639 12.1387 215.044 12.48L212.836 15.68C212.473 15.3173 211.983 14.944 211.364 14.56C210.745 14.1547 210.084 13.7707 209.38 13.408C208.697 13.0453 208.036 12.7253 207.396 12.448ZM208.196 28.224C208.687 27.392 209.231 26.4213 209.828 25.312C210.425 24.1813 211.033 22.9867 211.652 21.728C212.271 20.448 212.836 19.1787 213.348 17.92L216.388 20.224C215.919 21.376 215.417 22.5493 214.884 23.744C214.351 24.9173 213.817 26.08 213.284 27.232C212.751 28.3627 212.207 29.4507 211.652 30.496L208.196 28.224ZM245.988 10.048H260.292V13.536H245.988V10.048ZM240.548 17.984H268.548V21.632H240.548V17.984ZM252.42 15.968H256.516V26.464C256.516 27.488 256.367 28.288 256.068 28.864C255.791 29.44 255.257 29.8773 254.468 30.176C253.721 30.4533 252.825 30.624 251.78 30.688C250.756 30.7733 249.572 30.816 248.228 30.816C248.164 30.432 248.036 29.9947 247.844 29.504C247.652 29.0347 247.449 28.5653 247.236 28.096C247.023 27.6267 246.809 27.2213 246.596 26.88C247.257 26.9013 247.929 26.9227 248.612 26.944C249.295 26.944 249.913 26.944 250.468 26.944C251.023 26.944 251.396 26.944 251.588 26.944C251.908 26.944 252.121 26.9013 252.228 26.816C252.356 26.7307 252.42 26.5813 252.42 26.368V15.968ZM259.108 10.048H260.132L260.996 9.888L263.492 11.776C262.788 12.5653 261.999 13.376 261.124 14.208C260.271 15.0187 259.343 15.7867 258.34 16.512C257.359 17.2373 256.356 17.8773 255.332 18.432C255.097 18.0907 254.767 17.7173 254.34 17.312C253.935 16.8853 253.593 16.544 253.316 16.288C254.084 15.8187 254.841 15.264 255.588 14.624C256.335 13.984 257.017 13.3227 257.636 12.64C258.255 11.9573 258.745 11.3493 259.108 10.816V10.048ZM252.388 0.799999H256.484V6.656H252.388V0.799999ZM240.644 3.872H268.292V12.192H264.324V7.52H244.42V12.192H240.644V3.872ZM3 57.6705C3 54.8523 3.375 52.2576 4.125 49.8864C4.88258 47.5152 6.03788 45.3182 7.59091 43.2955H12.2159C11.625 44.0455 11.0758 44.9621 10.5682 46.0455C10.0606 47.1212 9.61742 48.303 9.23864 49.5909C8.85985 50.8788 8.56439 52.2121 8.35227 53.5909C8.14015 54.9621 8.03409 56.322 8.03409 57.6705C8.03409 59.4659 8.21591 61.2803 8.57955 63.1136C8.95076 64.9394 9.45076 66.6364 10.0795 68.2045C10.7159 69.7727 11.428 71.0568 12.2159 72.0568H7.59091C6.03788 70.0341 4.88258 67.8371 4.125 65.4659C3.375 63.0947 3 60.4962 3 57.6705ZM27.8778 41.72C27.7711 42.1253 27.6644 42.5733 27.5578 43.064C27.4724 43.5333 27.3871 43.9707 27.3018 44.376C27.2164 44.8453 27.1098 45.3787 26.9818 45.976C26.8538 46.552 26.7258 47.1387 26.5978 47.736C26.4911 48.312 26.3738 48.8773 26.2458 49.432C26.0324 50.3493 25.7658 51.416 25.4458 52.632C25.1258 53.848 24.7524 55.16 24.3258 56.568C23.8991 57.9547 23.4191 59.352 22.8858 60.76C22.3524 62.168 21.7871 63.544 21.1898 64.888C20.5924 66.2107 19.9524 67.4053 19.2698 68.472L15.1098 66.808C15.8564 65.8053 16.5498 64.6853 17.1898 63.448C17.8511 62.1893 18.4484 60.8987 18.9818 59.576C19.5151 58.2533 19.9844 56.952 20.3898 55.672C20.8164 54.392 21.1791 53.1973 21.4778 52.088C21.7764 50.9787 22.0111 50.0293 22.1818 49.24C22.4804 47.7893 22.7151 46.392 22.8858 45.048C23.0564 43.704 23.1311 42.4347 23.1098 41.24L27.8778 41.72ZM38.8858 44.728C39.3978 45.4107 39.9204 46.2747 40.4538 47.32C41.0084 48.344 41.5418 49.432 42.0538 50.584C42.5871 51.736 43.0671 52.8453 43.4938 53.912C43.9418 54.9787 44.2831 55.8853 44.5178 56.632L40.4538 58.52C40.2404 57.624 39.9418 56.632 39.5578 55.544C39.1951 54.4347 38.7684 53.3147 38.2778 52.184C37.8084 51.032 37.2964 49.944 36.7418 48.92C36.2084 47.896 35.6538 47.0427 35.0778 46.36L38.8858 44.728ZM14.8858 48.28C15.4618 48.3227 16.0271 48.344 16.5818 48.344C17.1364 48.3227 17.7124 48.3013 18.3098 48.28C18.8218 48.2587 19.4511 48.2267 20.1978 48.184C20.9658 48.12 21.7658 48.056 22.5978 47.992C23.4511 47.928 24.3044 47.864 25.1578 47.8C26.0111 47.7147 26.8004 47.6507 27.5258 47.608C28.2511 47.5653 28.8484 47.544 29.3178 47.544C30.4484 47.544 31.4404 47.736 32.2938 48.12C33.1684 48.4827 33.8511 49.112 34.3418 50.008C34.8538 50.904 35.1098 52.12 35.1098 53.656C35.1098 54.9147 35.0458 56.28 34.9178 57.752C34.8111 59.224 34.6298 60.632 34.3738 61.976C34.1178 63.32 33.7551 64.4613 33.2858 65.4C32.7738 66.5093 32.0698 67.2773 31.1737 67.704C30.2991 68.1307 29.2538 68.344 28.0378 68.344C27.4191 68.344 26.7578 68.2907 26.0538 68.184C25.3711 68.0987 24.7524 68.0027 24.1978 67.896L23.4938 63.672C23.9204 63.7787 24.3791 63.8853 24.8698 63.992C25.3818 64.0987 25.8618 64.184 26.3098 64.248C26.7791 64.312 27.1524 64.344 27.4298 64.344C27.9631 64.344 28.4324 64.248 28.8378 64.056C29.2431 63.8427 29.5738 63.48 29.8298 62.968C30.1284 62.3493 30.3631 61.5493 30.5338 60.568C30.7258 59.5867 30.8644 58.5307 30.9498 57.4C31.0564 56.248 31.1098 55.1493 31.1098 54.104C31.1098 53.2507 30.9924 52.6213 30.7578 52.216C30.5231 51.8107 30.1711 51.544 29.7018 51.416C29.2538 51.2667 28.6884 51.192 28.0058 51.192C27.5364 51.192 26.8751 51.2347 26.0218 51.32C25.1898 51.384 24.3044 51.4693 23.3658 51.576C22.4271 51.6613 21.5418 51.7573 20.7098 51.864C19.8991 51.9707 19.2698 52.0453 18.8218 52.088C18.3738 52.1733 17.7871 52.2693 17.0618 52.376C16.3578 52.4613 15.7604 52.5467 15.2698 52.632L14.8858 48.28ZM63.5578 43.224C63.4084 43.4373 63.2378 43.6827 63.0458 43.96C62.8751 44.216 62.7044 44.472 62.5338 44.728C62.1498 45.304 61.7231 45.976 61.2537 46.744C60.8058 47.4907 60.3364 48.2907 59.8458 49.144C59.3551 49.976 58.8751 50.808 58.4058 51.64C57.9578 52.472 57.5311 53.24 57.1258 53.944C57.7231 53.6027 58.3311 53.3573 58.9498 53.208C59.5684 53.0587 60.1871 52.984 60.8058 52.984C62.0004 52.984 62.9391 53.3467 63.6218 54.072C64.3258 54.776 64.7098 55.8 64.7738 57.144C64.7951 57.6133 64.8058 58.1787 64.8058 58.84C64.8058 59.5013 64.8058 60.1627 64.8058 60.824C64.8271 61.4853 64.8591 62.04 64.9018 62.488C64.9658 63.1067 65.1898 63.5547 65.5738 63.832C65.9791 64.088 66.4484 64.216 66.9818 64.216C67.6644 64.216 68.2831 64.0133 68.8378 63.608C69.4138 63.2027 69.9258 62.648 70.3738 61.944C70.8218 61.2187 71.2058 60.408 71.5258 59.512C71.8671 58.5947 72.1551 57.6453 72.3898 56.664L75.8458 59.48C75.2911 61.2933 74.5871 62.8933 73.7338 64.28C72.8804 65.6453 71.8351 66.7013 70.5978 67.448C69.3818 68.216 67.9524 68.6 66.3098 68.6C65.1364 68.6 64.1551 68.3867 63.3658 67.96C62.5764 67.5547 61.9898 67.0213 61.6058 66.36C61.2218 65.6773 61.0084 64.9413 60.9658 64.152C60.9231 63.576 60.8911 62.936 60.8698 62.232C60.8698 61.528 60.8591 60.8453 60.8378 60.184C60.8378 59.5013 60.8164 58.9467 60.7738 58.52C60.7311 57.9653 60.5498 57.528 60.2298 57.208C59.9098 56.888 59.4618 56.728 58.8858 56.728C58.1818 56.728 57.5098 56.952 56.8698 57.4C56.2298 57.848 55.6431 58.4347 55.1098 59.16C54.5978 59.8853 54.1498 60.6853 53.7658 61.56C53.5524 62.0293 53.3284 62.584 53.0938 63.224C52.8591 63.864 52.6351 64.5253 52.4218 65.208C52.2084 65.8907 52.0058 66.5307 51.8138 67.128C51.6218 67.7467 51.4618 68.2693 51.3338 68.696L46.8218 67.16C47.2271 66.0933 47.7178 64.8773 48.2938 63.512C48.8911 62.1253 49.5418 60.6747 50.2458 59.16C50.9498 57.6453 51.6644 56.1413 52.3898 54.648C53.1151 53.1547 53.8084 51.7467 54.4698 50.424C55.1311 49.08 55.7178 47.9173 56.2298 46.936C56.7631 45.9333 57.1684 45.176 57.4458 44.664C57.6591 44.2373 57.9044 43.7573 58.1818 43.224C58.4591 42.6907 58.7364 42.0827 59.0138 41.4L63.5578 43.224ZM96.7418 44.376C97.0404 44.824 97.3711 45.3573 97.7338 45.976C98.1178 46.5733 98.4911 47.192 98.8538 47.832C99.2164 48.4507 99.5151 49.016 99.7498 49.528L96.9018 50.776C96.5818 50.0933 96.2618 49.464 95.9418 48.888C95.6431 48.2907 95.3338 47.7253 95.0138 47.192C94.7151 46.6373 94.3631 46.0933 93.9578 45.56L96.7418 44.376ZM101.03 42.616C101.35 43.0427 101.702 43.5653 102.086 44.184C102.47 44.7813 102.843 45.3893 103.206 46.008C103.59 46.6053 103.899 47.1493 104.134 47.64L101.35 48.984C101.03 48.3013 100.699 47.6827 100.358 47.128C100.038 46.552 99.7071 45.9973 99.3658 45.464C99.0458 44.9307 98.6831 44.408 98.2778 43.896L101.03 42.616ZM88.4858 41.816C88.3791 42.4987 88.2938 43.224 88.2298 43.992C88.1658 44.7387 88.1124 45.432 88.0698 46.072C88.0271 46.9253 87.9844 47.9813 87.9418 49.24C87.8991 50.4773 87.8564 51.7893 87.8138 53.176C87.7711 54.5413 87.7284 55.8853 87.6858 57.208C87.6644 58.5093 87.6538 59.6613 87.6538 60.664C87.6538 61.7307 87.8458 62.584 88.2298 63.224C88.6351 63.8427 89.1684 64.2907 89.8298 64.568C90.5124 64.824 91.2698 64.952 92.1018 64.952C93.4031 64.952 94.5978 64.7813 95.6858 64.44C96.7951 64.0773 97.7871 63.5973 98.6618 63C99.5578 62.3813 100.368 61.6773 101.094 60.888C101.819 60.0987 102.47 59.2667 103.046 58.392L105.958 61.944C105.424 62.712 104.742 63.5227 103.91 64.376C103.078 65.2293 102.086 66.0293 100.934 66.776C99.8031 67.5227 98.4911 68.12 96.9978 68.568C95.5044 69.0373 93.8511 69.272 92.0378 69.272C90.3098 69.272 88.7951 69.0053 87.4938 68.472C86.1924 67.9387 85.1898 67.1067 84.4858 65.976C83.7818 64.824 83.4298 63.3413 83.4298 61.528C83.4298 60.6533 83.4404 59.6613 83.4618 58.552C83.4831 57.4213 83.5044 56.248 83.5258 55.032C83.5684 53.816 83.6004 52.632 83.6218 51.48C83.6431 50.3067 83.6644 49.2507 83.6858 48.312C83.7071 47.352 83.7178 46.6053 83.7178 46.072C83.7178 45.304 83.6858 44.5573 83.6218 43.832C83.5578 43.0853 83.4618 42.392 83.3338 41.752L88.4858 41.816ZM119.185 57.6705C119.185 60.4962 118.806 63.0947 118.048 65.4659C117.298 67.8371 116.147 70.0341 114.594 72.0568H109.969C110.56 71.3068 111.109 70.3902 111.616 69.3068C112.124 68.2235 112.567 67.0417 112.946 65.7614C113.325 64.4735 113.62 63.1402 113.832 61.7614C114.045 60.3826 114.151 59.0189 114.151 57.6705C114.151 55.875 113.965 54.0644 113.594 52.2386C113.23 50.4053 112.73 48.7083 112.094 47.1477C111.465 45.5795 110.757 44.2955 109.969 43.2955H114.594C116.147 45.3182 117.298 47.5152 118.048 49.8864C118.806 52.2576 119.185 54.8523 119.185 57.6705ZM124.012 42.584H152.46V46.104H124.012V42.584ZM136.204 39.8H140.172V44.056H136.204V39.8ZM140.492 44.024H144.204V51.896C144.204 52.7067 144.118 53.3573 143.948 53.848C143.777 54.3387 143.404 54.7227 142.828 55C142.294 55.256 141.654 55.416 140.908 55.48C140.161 55.5227 139.297 55.544 138.316 55.544C138.252 55.032 138.113 54.4667 137.9 53.848C137.708 53.208 137.494 52.6533 137.26 52.184C137.814 52.2053 138.358 52.216 138.892 52.216C139.446 52.216 139.82 52.216 140.012 52.216C140.182 52.216 140.3 52.184 140.364 52.12C140.449 52.056 140.492 51.9493 140.492 51.8V44.024ZM133.996 43.512H137.58V46.072C137.58 46.904 137.516 47.7893 137.388 48.728C137.281 49.6667 137.046 50.6053 136.684 51.544C136.342 52.4827 135.82 53.4 135.116 54.296C134.412 55.192 133.473 56.0027 132.3 56.728C132.108 56.472 131.841 56.184 131.5 55.864C131.18 55.5227 130.838 55.2027 130.476 54.904C130.113 54.584 129.782 54.328 129.484 54.136C130.508 53.5387 131.318 52.8987 131.916 52.216C132.513 51.512 132.961 50.808 133.26 50.104C133.558 49.3787 133.75 48.664 133.836 47.96C133.942 47.2347 133.996 46.5627 133.996 45.944V43.512ZM145.1 48.76L148.076 47.064C148.694 47.64 149.324 48.2907 149.964 49.016C150.625 49.7413 151.244 50.456 151.82 51.16C152.396 51.864 152.854 52.504 153.196 53.08L149.996 55.032C149.697 54.4347 149.27 53.7733 148.716 53.048C148.182 52.3227 147.596 51.5867 146.956 50.84C146.337 50.072 145.718 49.3787 145.1 48.76ZM128.108 47.192L131.692 48.152C131.03 49.4107 130.198 50.6373 129.196 51.832C128.193 53.0267 127.137 54.0187 126.028 54.808C125.686 54.4453 125.249 54.0507 124.716 53.624C124.182 53.176 123.734 52.8347 123.372 52.6C124.054 52.152 124.705 51.6293 125.324 51.032C125.942 50.4347 126.486 49.8053 126.956 49.144C127.446 48.4827 127.83 47.832 128.108 47.192ZM133.452 58.744C134.54 60.3227 136.022 61.6453 137.9 62.712C139.798 63.7573 142.049 64.568 144.652 65.144C147.254 65.72 150.177 66.0827 153.42 66.232C153.164 66.5307 152.886 66.8933 152.588 67.32C152.31 67.768 152.044 68.2053 151.788 68.632C151.553 69.08 151.35 69.4853 151.18 69.848C147.766 69.5707 144.726 69.048 142.06 68.28C139.393 67.512 137.068 66.4347 135.084 65.048C133.1 63.6613 131.414 61.9227 130.028 59.832L133.452 58.744ZM134.22 54.424L138.252 55.224C136.929 57.0587 135.318 58.7227 133.42 60.216C131.542 61.688 129.217 62.9893 126.444 64.12C126.294 63.8 126.081 63.4587 125.804 63.096C125.526 62.7333 125.228 62.392 124.908 62.072C124.609 61.7307 124.321 61.464 124.044 61.272C126.625 60.3973 128.748 59.3627 130.411 58.168C132.076 56.9733 133.345 55.7253 134.22 54.424ZM134.188 56.792H145.516V59.8H131.468L134.188 56.792ZM144.46 56.792H145.26L145.932 56.664L148.428 58.296C147.382 60.152 146.049 61.752 144.428 63.096C142.828 64.44 140.993 65.5707 138.924 66.488C136.854 67.384 134.636 68.1093 132.268 68.664C129.9 69.24 127.446 69.6667 124.908 69.944C124.822 69.624 124.673 69.24 124.46 68.792C124.268 68.3653 124.044 67.9387 123.788 67.512C123.553 67.0853 123.318 66.744 123.084 66.488C125.558 66.296 127.905 65.9867 130.124 65.56C132.364 65.1333 134.422 64.568 136.3 63.864C138.177 63.1387 139.809 62.2427 141.196 61.176C142.604 60.1093 143.692 58.8507 144.46 57.4V56.792ZM170.124 39.736L173.676 40.312C172.972 42.0187 172.076 43.672 170.988 45.272C169.921 46.872 168.513 48.3333 166.764 49.656C166.486 49.2293 166.092 48.792 165.58 48.344C165.089 47.8747 164.641 47.5227 164.236 47.288C165.281 46.584 166.177 45.816 166.924 44.984C167.692 44.152 168.342 43.288 168.876 42.392C169.409 41.4747 169.825 40.5893 170.124 39.736ZM171.02 42.104H177.292V45.048H169.228L171.02 42.104ZM171.5 49.528H174.22C174.156 50.552 174.017 51.48 173.804 52.312C173.59 53.144 173.228 53.88 172.716 54.52C172.204 55.1387 171.468 55.672 170.508 56.12C170.358 55.8 170.124 55.4373 169.804 55.032C169.484 54.6267 169.185 54.3067 168.908 54.072C169.932 53.624 170.604 53.0267 170.924 52.28C171.265 51.5333 171.457 50.616 171.5 49.528ZM175.436 49.656H178.22V52.248C178.22 52.5467 178.241 52.728 178.284 52.792C178.348 52.856 178.497 52.888 178.732 52.888C178.817 52.888 178.934 52.888 179.084 52.888C179.254 52.888 179.425 52.888 179.596 52.888C179.788 52.888 179.916 52.888 179.98 52.888C180.172 52.888 180.3 52.8667 180.364 52.824C180.449 52.76 180.513 52.664 180.556 52.536C180.812 52.7067 181.174 52.8773 181.644 53.048C182.113 53.2187 182.54 53.3467 182.924 53.432C182.774 54.136 182.497 54.6267 182.092 54.904C181.686 55.16 181.121 55.288 180.396 55.288C180.289 55.288 180.14 55.288 179.948 55.288C179.756 55.288 179.553 55.288 179.34 55.288C179.126 55.288 178.924 55.288 178.732 55.288C178.561 55.288 178.422 55.288 178.316 55.288C177.526 55.288 176.918 55.2027 176.492 55.032C176.086 54.84 175.809 54.5307 175.66 54.104C175.51 53.656 175.436 53.0373 175.436 52.248V49.656ZM164.908 58.968H184.812V62.136H164.908V58.968ZM176.78 60.024C177.356 61.8587 178.316 63.3307 179.66 64.44C181.004 65.528 182.892 66.2427 185.324 66.584C184.94 66.9467 184.534 67.448 184.108 68.088C183.702 68.728 183.393 69.2933 183.18 69.784C181.281 69.3787 179.702 68.7707 178.444 67.96C177.185 67.1493 176.161 66.1253 175.372 64.888C174.582 63.6293 173.953 62.136 173.484 60.408L176.78 60.024ZM169.484 47.352H181.324V50.36H169.484V57.976H166.316V47.352H166.348H169.484ZM180.492 47.352H183.756V57.944H180.492V47.352ZM176.012 42.104H176.812L177.356 41.944L179.788 43.48C179.468 44.12 179.094 44.8133 178.668 45.56C178.262 46.2853 177.836 46.9893 177.388 47.672C176.94 48.3333 176.513 48.9307 176.108 49.464C175.788 49.2293 175.372 48.952 174.86 48.632C174.348 48.312 173.9 48.056 173.516 47.864C173.836 47.3947 174.156 46.8507 174.476 46.232C174.817 45.6133 175.116 44.9947 175.372 44.376C175.649 43.736 175.862 43.192 176.012 42.744V42.104ZM173.036 56.376H176.524C176.417 58.168 176.204 59.7893 175.884 61.24C175.564 62.6907 175.02 63.9707 174.252 65.08C173.484 66.1893 172.385 67.1387 170.956 67.928C169.526 68.7387 167.649 69.4107 165.324 69.944C165.174 69.496 164.908 68.9733 164.524 68.376C164.161 67.8 163.809 67.3307 163.468 66.968C165.537 66.584 167.19 66.0933 168.428 65.496C169.665 64.8773 170.593 64.1413 171.212 63.288C171.852 62.4347 172.289 61.4427 172.524 60.312C172.78 59.16 172.95 57.848 173.036 56.376ZM154.86 55.896C156.14 55.6187 157.665 55.2453 159.436 54.776C161.228 54.3067 163.03 53.816 164.844 53.304L165.324 56.76C163.681 57.2507 162.017 57.7413 160.332 58.232C158.668 58.7227 157.121 59.1707 155.692 59.576L154.86 55.896ZM155.372 45.88H165.164V49.4H155.372V45.88ZM158.732 39.832H162.252V65.816C162.252 66.6907 162.156 67.384 161.964 67.896C161.793 68.4293 161.462 68.8453 160.972 69.144C160.502 69.4427 159.905 69.6453 159.18 69.752C158.476 69.8587 157.59 69.9013 156.524 69.88C156.481 69.4107 156.364 68.824 156.172 68.12C155.98 67.4373 155.766 66.84 155.532 66.328C156.129 66.3493 156.673 66.3707 157.164 66.392C157.676 66.392 158.028 66.3813 158.22 66.36C158.412 66.36 158.54 66.328 158.604 66.264C158.689 66.1787 158.732 66.0293 158.732 65.816V39.832ZM189.188 57.6705C189.188 54.8523 189.562 52.2576 190.312 49.8864C191.07 47.5152 192.225 45.3182 193.778 43.2955H198.403C197.813 44.0455 197.263 44.9621 196.756 46.0455C196.248 47.1212 195.805 48.303 195.426 49.5909C195.047 50.8788 194.752 52.2121 194.54 53.5909C194.328 54.9621 194.222 56.322 194.222 57.6705C194.222 59.4659 194.403 61.2803 194.767 63.1136C195.138 64.9394 195.638 66.6364 196.267 68.2045C196.903 69.7727 197.616 71.0568 198.403 72.0568H193.778C192.225 70.0341 191.07 67.8371 190.312 65.4659C189.562 63.0947 189.188 60.4962 189.188 57.6705ZM200.465 57.464C200.956 57.08 201.404 56.696 201.809 56.312C202.236 55.9067 202.695 55.4587 203.185 54.968C203.548 54.584 203.964 54.1147 204.433 53.56C204.903 52.984 205.404 52.3653 205.937 51.704C206.471 51.0427 207.004 50.3813 207.537 49.72C208.092 49.0373 208.615 48.408 209.105 47.832C210.236 46.552 211.335 45.8693 212.401 45.784C213.468 45.6773 214.588 46.2 215.761 47.352C216.487 48.056 217.233 48.856 218.001 49.752C218.791 50.648 219.559 51.544 220.305 52.44C221.052 53.336 221.745 54.1253 222.385 54.808C222.897 55.384 223.441 55.9813 224.017 56.6C224.615 57.2187 225.244 57.8693 225.905 58.552C226.567 59.2347 227.26 59.9173 227.985 60.6C228.711 61.2827 229.447 61.9653 230.193 62.648L226.897 66.488C226.151 65.7413 225.361 64.9307 224.529 64.056C223.697 63.1813 222.876 62.2853 222.065 61.368C221.276 60.4507 220.529 59.608 219.825 58.84C219.185 58.0507 218.503 57.2187 217.777 56.344C217.073 55.448 216.391 54.5947 215.729 53.784C215.068 52.9733 214.481 52.2907 213.969 51.736C213.607 51.3093 213.276 51.0427 212.977 50.936C212.7 50.8293 212.423 50.8507 212.145 51C211.889 51.1493 211.612 51.4267 211.313 51.832C210.993 52.2373 210.62 52.7173 210.193 53.272C209.788 53.8267 209.351 54.424 208.881 55.064C208.433 55.6827 207.996 56.2907 207.569 56.888C207.143 57.464 206.748 57.976 206.385 58.424C206.023 58.9573 205.66 59.4907 205.297 60.024C204.956 60.5573 204.647 61.0373 204.369 61.464L200.465 57.464ZM249.745 43.224C249.596 43.4373 249.425 43.6827 249.233 43.96C249.063 44.216 248.892 44.472 248.721 44.728C248.337 45.304 247.911 45.976 247.441 46.744C246.993 47.4907 246.524 48.2907 246.033 49.144C245.543 49.976 245.063 50.808 244.593 51.64C244.145 52.472 243.719 53.24 243.313 53.944C243.911 53.6027 244.519 53.3573 245.137 53.208C245.756 53.0587 246.375 52.984 246.993 52.984C248.188 52.984 249.127 53.3467 249.809 54.072C250.513 54.776 250.897 55.8 250.961 57.144C250.983 57.6133 250.993 58.1787 250.993 58.84C250.993 59.5013 250.993 60.1627 250.993 60.824C251.015 61.4853 251.047 62.04 251.089 62.488C251.153 63.1067 251.377 63.5547 251.761 63.832C252.167 64.088 252.636 64.216 253.169 64.216C253.852 64.216 254.471 64.0133 255.025 63.608C255.601 63.2027 256.113 62.648 256.561 61.944C257.009 61.2187 257.393 60.408 257.713 59.512C258.055 58.5947 258.343 57.6453 258.577 56.664L262.033 59.48C261.479 61.2933 260.775 62.8933 259.921 64.28C259.068 65.6453 258.023 66.7013 256.785 67.448C255.569 68.216 254.14 68.6 252.497 68.6C251.324 68.6 250.343 68.3867 249.553 67.96C248.764 67.5547 248.177 67.0213 247.793 66.36C247.409 65.6773 247.196 64.9413 247.153 64.152C247.111 63.576 247.079 62.936 247.057 62.232C247.057 61.528 247.047 60.8453 247.025 60.184C247.025 59.5013 247.004 58.9467 246.961 58.52C246.919 57.9653 246.737 57.528 246.417 57.208C246.097 56.888 245.649 56.728 245.073 56.728C244.369 56.728 243.697 56.952 243.057 57.4C242.417 57.848 241.831 58.4347 241.297 59.16C240.785 59.8853 240.337 60.6853 239.953 61.56C239.74 62.0293 239.516 62.584 239.281 63.224C239.047 63.864 238.823 64.5253 238.609 65.208C238.396 65.8907 238.193 66.5307 238.001 67.128C237.809 67.7467 237.649 68.2693 237.521 68.696L233.009 67.16C233.415 66.0933 233.905 64.8773 234.481 63.512C235.079 62.1253 235.729 60.6747 236.433 59.16C237.137 57.6453 237.852 56.1413 238.577 54.648C239.303 53.1547 239.996 51.7467 240.657 50.424C241.319 49.08 241.905 47.9173 242.417 46.936C242.951 45.9333 243.356 45.176 243.633 44.664C243.847 44.2373 244.092 43.7573 244.369 43.224C244.647 42.6907 244.924 42.0827 245.201 41.4L249.745 43.224ZM278.065 41.72C277.959 42.1253 277.852 42.5733 277.745 43.064C277.66 43.5333 277.575 43.9707 277.489 44.376C277.404 44.8453 277.297 45.3787 277.169 45.976C277.041 46.552 276.913 47.1387 276.785 47.736C276.679 48.312 276.561 48.8773 276.433 49.432C276.22 50.3493 275.953 51.416 275.633 52.632C275.313 53.848 274.94 55.16 274.513 56.568C274.087 57.9547 273.607 59.352 273.073 60.76C272.54 62.168 271.975 63.544 271.377 64.888C270.78 66.2107 270.14 67.4053 269.457 68.472L265.297 66.808C266.044 65.8053 266.737 64.6853 267.377 63.448C268.039 62.1893 268.636 60.8987 269.169 59.576C269.703 58.2533 270.172 56.952 270.577 55.672C271.004 54.392 271.367 53.1973 271.665 52.088C271.964 50.9787 272.199 50.0293 272.369 49.24C272.668 47.7893 272.903 46.392 273.073 45.048C273.244 43.704 273.319 42.4347 273.297 41.24L278.065 41.72ZM289.073 44.728C289.585 45.4107 290.108 46.2747 290.641 47.32C291.196 48.344 291.729 49.432 292.241 50.584C292.775 51.736 293.255 52.8453 293.681 53.912C294.129 54.9787 294.471 55.8853 294.705 56.632L290.641 58.52C290.428 57.624 290.129 56.632 289.745 55.544C289.383 54.4347 288.956 53.3147 288.465 52.184C287.996 51.032 287.484 49.944 286.929 48.92C286.396 47.896 285.841 47.0427 285.265 46.36L289.073 44.728ZM265.073 48.28C265.649 48.3227 266.215 48.344 266.769 48.344C267.324 48.3227 267.9 48.3013 268.497 48.28C269.009 48.2587 269.639 48.2267 270.385 48.184C271.153 48.12 271.953 48.056 272.785 47.992C273.639 47.928 274.492 47.864 275.345 47.8C276.199 47.7147 276.988 47.6507 277.713 47.608C278.439 47.5653 279.036 47.544 279.505 47.544C280.636 47.544 281.628 47.736 282.481 48.12C283.356 48.4827 284.039 49.112 284.529 50.008C285.041 50.904 285.297 52.12 285.297 53.656C285.297 54.9147 285.233 56.28 285.105 57.752C284.999 59.224 284.817 60.632 284.561 61.976C284.305 63.32 283.943 64.4613 283.473 65.4C282.961 66.5093 282.257 67.2773 281.361 67.704C280.487 68.1307 279.441 68.344 278.225 68.344C277.607 68.344 276.945 68.2907 276.241 68.184C275.559 68.0987 274.94 68.0027 274.385 67.896L273.681 63.672C274.108 63.7787 274.567 63.8853 275.057 63.992C275.569 64.0987 276.049 64.184 276.497 64.248C276.967 64.312 277.34 64.344 277.617 64.344C278.151 64.344 278.62 64.248 279.025 64.056C279.431 63.8427 279.761 63.48 280.017 62.968C280.316 62.3493 280.551 61.5493 280.721 60.568C280.913 59.5867 281.052 58.5307 281.137 57.4C281.244 56.248 281.297 55.1493 281.297 54.104C281.297 53.2507 281.18 52.6213 280.945 52.216C280.711 51.8107 280.359 51.544 279.889 51.416C279.441 51.2667 278.876 51.192 278.193 51.192C277.724 51.192 277.063 51.2347 276.209 51.32C275.377 51.384 274.492 51.4693 273.553 51.576C272.615 51.6613 271.729 51.7573 270.897 51.864C270.087 51.9707 269.457 52.0453 269.009 52.088C268.561 52.1733 267.975 52.2693 267.249 52.376C266.545 52.4613 265.948 52.5467 265.457 52.632L265.073 48.28ZM18.464 82.224C18.3147 82.4373 18.144 82.6827 17.952 82.96C17.7813 83.216 17.6107 83.472 17.44 83.728C17.056 84.304 16.6293 84.976 16.16 85.744C15.712 86.4907 15.2427 87.2907 14.752 88.144C14.2613 88.976 13.7813 89.808 13.312 90.64C12.864 91.472 12.4373 92.24 12.032 92.944C12.6293 92.6027 13.2373 92.3573 13.856 92.208C14.4747 92.0587 15.0933 91.984 15.712 91.984C16.9067 91.984 17.8453 92.3467 18.528 93.072C19.232 93.776 19.616 94.8 19.68 96.144C19.7013 96.6133 19.712 97.1787 19.712 97.84C19.712 98.5013 19.712 99.1627 19.712 99.824C19.7333 100.485 19.7653 101.04 19.808 101.488C19.872 102.107 20.096 102.555 20.48 102.832C20.8853 103.088 21.3547 103.216 21.888 103.216C22.5707 103.216 23.1893 103.013 23.744 102.608C24.32 102.203 24.832 101.648 25.28 100.944C25.728 100.219 26.112 99.408 26.432 98.512C26.7733 97.5947 27.0613 96.6453 27.296 95.664L30.752 98.48C30.1973 100.293 29.4933 101.893 28.64 103.28C27.7867 104.645 26.7413 105.701 25.504 106.448C24.288 107.216 22.8587 107.6 21.216 107.6C20.0427 107.6 19.0613 107.387 18.272 106.96C17.4827 106.555 16.896 106.021 16.512 105.36C16.128 104.677 15.9147 103.941 15.872 103.152C15.8293 102.576 15.7973 101.936 15.776 101.232C15.776 100.528 15.7653 99.8453 15.744 99.184C15.744 98.5013 15.7227 97.9467 15.68 97.52C15.6373 96.9653 15.456 96.528 15.136 96.208C14.816 95.888 14.368 95.728 13.792 95.728C13.088 95.728 12.416 95.952 11.776 96.4C11.136 96.848 10.5493 97.4347 10.016 98.16C9.504 98.8853 9.056 99.6853 8.672 100.56C8.45867 101.029 8.23467 101.584 8 102.224C7.76533 102.864 7.54133 103.525 7.328 104.208C7.11467 104.891 6.912 105.531 6.72 106.128C6.528 106.747 6.368 107.269 6.24 107.696L1.728 106.16C2.13333 105.093 2.624 103.877 3.2 102.512C3.79733 101.125 4.448 99.6747 5.152 98.16C5.856 96.6453 6.57067 95.1413 7.296 93.648C8.02133 92.1547 8.71467 90.7467 9.376 89.424C10.0373 88.08 10.624 86.9173 11.136 85.936C11.6693 84.9333 12.0747 84.176 12.352 83.664C12.5653 83.2373 12.8107 82.7573 13.088 82.224C13.3653 81.6907 13.6427 81.0827 13.92 80.4L18.464 82.224ZM42.0909 96.6705C42.0909 99.4962 41.7121 102.095 40.9545 104.466C40.2045 106.837 39.053 109.034 37.5 111.057H32.875C33.4659 110.307 34.0152 109.39 34.5227 108.307C35.0303 107.223 35.4735 106.042 35.8523 104.761C36.2311 103.473 36.5265 102.14 36.7386 100.761C36.9508 99.3826 37.0568 98.0189 37.0568 96.6705C37.0568 94.875 36.8712 93.0644 36.5 91.2386C36.1364 89.4053 35.6364 87.7083 35 86.1477C34.3712 84.5795 33.6629 83.2955 32.875 82.2955H37.5C39.053 84.3182 40.2045 86.5152 40.9545 88.8864C41.7121 91.2576 42.0909 93.8523 42.0909 96.6705ZM69.0298 91.856C69.0298 93.84 68.8804 95.6427 68.5818 97.264C68.3044 98.864 67.8138 100.325 67.1098 101.648C66.4058 102.949 65.4244 104.123 64.1658 105.168C62.9071 106.213 61.3178 107.163 59.3978 108.016L55.9738 104.784C57.5098 104.251 58.8324 103.653 59.9418 102.992C61.0724 102.331 62.0004 101.52 62.7257 100.56C63.4511 99.5787 63.9844 98.4053 64.3258 97.04C64.6884 95.6533 64.8698 93.9787 64.8698 92.016V83.504C64.8698 82.8427 64.8484 82.2667 64.8058 81.776C64.7631 81.264 64.7204 80.848 64.6778 80.528H69.2538C69.2111 80.848 69.1578 81.264 69.0938 81.776C69.0511 82.2667 69.0298 82.8427 69.0298 83.504V91.856ZM57.4778 80.816C57.4351 81.1147 57.3924 81.52 57.3498 82.032C57.3071 82.5227 57.2858 83.0773 57.2858 83.696V95.152C57.2858 95.6213 57.2964 96.08 57.3178 96.528C57.3391 96.9547 57.3498 97.3387 57.3498 97.68C57.3711 98 57.3924 98.2773 57.4138 98.512H52.9338C52.9764 98.2773 53.0084 98 53.0298 97.68C53.0511 97.3387 53.0724 96.9547 53.0938 96.528C53.1151 96.08 53.1258 95.6213 53.1258 95.152V83.696C53.1258 83.2267 53.1044 82.7467 53.0618 82.256C53.0404 81.7653 52.9978 81.2853 52.9338 80.816H57.4778ZM46.9178 86.576C47.1311 86.5973 47.4084 86.64 47.7498 86.704C48.0911 86.7467 48.4858 86.7893 48.9338 86.832C49.3818 86.8533 49.8724 86.864 50.4058 86.864H71.3978C72.2511 86.864 72.9444 86.8427 73.4778 86.8C74.0111 86.7573 74.4911 86.704 74.9178 86.64V90.896C74.5764 90.8533 74.1178 90.832 73.5418 90.832C72.9658 90.8107 72.2511 90.8 71.3978 90.8H50.4058C49.8724 90.8 49.3818 90.8107 48.9338 90.832C48.5071 90.832 48.1231 90.8427 47.7818 90.864C47.4618 90.8853 47.1738 90.9067 46.9178 90.928V86.576ZM80.0378 91.184C80.4218 91.2053 80.9124 91.2373 81.5098 91.28C82.1071 91.3013 82.7258 91.3227 83.3658 91.344C84.0271 91.3653 84.6351 91.376 85.1898 91.376C85.7231 91.376 86.3844 91.376 87.1738 91.376C87.9631 91.376 88.8164 91.376 89.7338 91.376C90.6724 91.376 91.6324 91.376 92.6138 91.376C93.6164 91.376 94.6084 91.376 95.5898 91.376C96.5711 91.376 97.4991 91.376 98.3738 91.376C99.2484 91.376 100.027 91.376 100.71 91.376C101.414 91.376 101.968 91.376 102.374 91.376C103.12 91.376 103.824 91.3547 104.486 91.312C105.147 91.248 105.691 91.2053 106.118 91.184V96.208C105.755 96.1867 105.211 96.1547 104.486 96.112C103.76 96.0693 103.056 96.048 102.374 96.048C101.968 96.048 101.414 96.048 100.71 96.048C100.006 96.048 99.2164 96.048 98.3418 96.048C97.4671 96.048 96.5391 96.048 95.5578 96.048C94.5978 96.048 93.6164 96.048 92.6138 96.048C91.6111 96.048 90.6404 96.048 89.7018 96.048C88.7844 96.048 87.9311 96.048 87.1418 96.048C86.3738 96.048 85.7231 96.048 85.1898 96.048C84.2724 96.048 83.3338 96.0693 82.3738 96.112C81.4138 96.1333 80.6351 96.1653 80.0378 96.208V91.184ZM132.71 80.08C132.987 80.464 133.286 80.9227 133.606 81.456C133.926 81.9893 134.224 82.5227 134.502 83.056C134.8 83.5893 135.056 84.0587 135.27 84.464L132.678 85.552C132.358 84.8907 131.963 84.144 131.494 83.312C131.046 82.4587 130.608 81.7227 130.182 81.104L132.71 80.08ZM136.486 78.64C136.784 79.0453 137.094 79.5147 137.414 80.048C137.734 80.5813 138.043 81.1147 138.342 81.648C138.662 82.16 138.907 82.608 139.078 82.992L136.55 84.08C136.208 83.3973 135.803 82.64 135.334 81.808C134.864 80.976 134.406 80.2613 133.958 79.664L136.486 78.64ZM118.918 81.456C118.832 81.9467 118.768 82.512 118.726 83.152C118.683 83.792 118.662 84.336 118.662 84.784C118.662 85.104 118.662 85.6693 118.662 86.48C118.662 87.2693 118.662 88.208 118.662 89.296C118.662 90.384 118.662 91.5253 118.662 92.72C118.662 93.8933 118.662 95.0347 118.662 96.144C118.662 97.232 118.662 98.2027 118.662 99.056C118.662 99.9093 118.662 100.539 118.662 100.944C118.662 101.627 118.832 102.096 119.174 102.352C119.515 102.608 120.038 102.811 120.742 102.96C121.232 103.024 121.798 103.077 122.438 103.12C123.078 103.141 123.75 103.152 124.454 103.152C125.286 103.152 126.203 103.131 127.206 103.088C128.23 103.024 129.254 102.949 130.278 102.864C131.323 102.779 132.304 102.661 133.222 102.512C134.139 102.363 134.928 102.203 135.59 102.032V106.704C134.587 106.853 133.424 106.971 132.102 107.056C130.779 107.163 129.424 107.237 128.038 107.28C126.672 107.344 125.392 107.376 124.198 107.376C123.152 107.376 122.16 107.344 121.222 107.28C120.304 107.216 119.504 107.131 118.822 107.024C117.435 106.747 116.358 106.224 115.59 105.456C114.822 104.667 114.438 103.589 114.438 102.224C114.438 101.605 114.438 100.805 114.438 99.824C114.438 98.8213 114.438 97.7227 114.438 96.528C114.438 95.312 114.438 94.096 114.438 92.88C114.438 91.6427 114.438 90.48 114.438 89.392C114.438 88.2827 114.438 87.3227 114.438 86.512C114.438 85.7013 114.438 85.1253 114.438 84.784C114.438 84.5493 114.427 84.2293 114.406 83.824C114.384 83.4187 114.352 83.0027 114.31 82.576C114.288 82.1493 114.246 81.776 114.182 81.456H118.918ZM116.806 91.28C117.83 91.0667 118.918 90.8107 120.07 90.512C121.222 90.192 122.384 89.8507 123.558 89.488C124.731 89.1253 125.84 88.7627 126.886 88.4C127.952 88.016 128.902 87.6427 129.734 87.28C130.31 87.0667 130.875 86.8213 131.43 86.544C132.006 86.2667 132.603 85.936 133.222 85.552L134.95 89.616C134.331 89.8507 133.68 90.1173 132.998 90.416C132.336 90.6933 131.739 90.928 131.206 91.12C130.267 91.4827 129.19 91.8667 127.974 92.272C126.779 92.6773 125.531 93.0827 124.23 93.488C122.928 93.872 121.638 94.2347 120.358 94.576C119.099 94.9173 117.926 95.216 116.838 95.472L116.806 91.28ZM167.782 84.304C167.654 84.496 167.462 84.7947 167.206 85.2C166.971 85.6053 166.79 85.9787 166.662 86.32C166.214 87.3227 165.659 88.4427 164.998 89.68C164.358 90.9173 163.622 92.1653 162.79 93.424C161.979 94.6613 161.115 95.824 160.198 96.912C159.003 98.256 157.68 99.5893 156.23 100.912C154.8 102.213 153.286 103.419 151.686 104.528C150.107 105.616 148.486 106.555 146.822 107.344L143.526 103.888C145.254 103.227 146.928 102.395 148.55 101.392C150.171 100.389 151.675 99.3013 153.062 98.128C154.448 96.9547 155.643 95.8133 156.646 94.704C157.35 93.8933 158.011 93.0293 158.63 92.112C159.27 91.1947 159.835 90.288 160.326 89.392C160.816 88.4747 161.179 87.632 161.414 86.864C161.2 86.864 160.816 86.864 160.262 86.864C159.707 86.864 159.056 86.864 158.31 86.864C157.584 86.864 156.816 86.864 156.006 86.864C155.195 86.864 154.416 86.864 153.67 86.864C152.944 86.864 152.304 86.864 151.75 86.864C151.195 86.864 150.8 86.864 150.566 86.864C150.118 86.864 149.648 86.8853 149.158 86.928C148.667 86.9493 148.198 86.9813 147.75 87.024C147.323 87.0453 146.992 87.0667 146.758 87.088V82.544C147.078 82.5653 147.472 82.5973 147.942 82.64C148.411 82.6827 148.88 82.7147 149.35 82.736C149.84 82.7573 150.246 82.768 150.566 82.768C150.843 82.768 151.28 82.768 151.878 82.768C152.475 82.768 153.158 82.768 153.926 82.768C154.694 82.768 155.483 82.768 156.294 82.768C157.126 82.768 157.915 82.768 158.662 82.768C159.43 82.768 160.091 82.768 160.646 82.768C161.2 82.768 161.606 82.768 161.862 82.768C162.566 82.768 163.206 82.7253 163.782 82.64C164.379 82.5547 164.838 82.4587 165.158 82.352L167.782 84.304ZM160.614 94.256C161.446 94.9173 162.331 95.6853 163.27 96.56C164.208 97.4347 165.136 98.3413 166.054 99.28C166.971 100.219 167.814 101.125 168.582 102C169.371 102.853 170.032 103.6 170.566 104.24L166.918 107.408C166.128 106.32 165.222 105.189 164.198 104.016C163.195 102.843 162.128 101.68 160.998 100.528C159.888 99.3547 158.758 98.2453 157.606 97.2L160.614 94.256ZM175.302 84.048C175.942 84.0267 176.55 84.0053 177.126 83.984C177.702 83.9413 178.139 83.9093 178.438 83.888C179.099 83.8453 179.91 83.7813 180.87 83.696C181.851 83.5893 182.939 83.4827 184.134 83.376C185.35 83.2693 186.64 83.1627 188.006 83.056C189.371 82.9493 190.79 82.832 192.262 82.704C193.371 82.5973 194.47 82.512 195.558 82.448C196.667 82.3627 197.712 82.2987 198.694 82.256C199.696 82.192 200.571 82.1493 201.318 82.128L201.35 86.224C200.774 86.224 200.112 86.2347 199.366 86.256C198.619 86.2773 197.872 86.32 197.126 86.384C196.4 86.4267 195.75 86.5227 195.174 86.672C194.214 86.928 193.318 87.3653 192.486 87.984C191.654 88.5813 190.928 89.296 190.31 90.128C189.712 90.9387 189.243 91.824 188.902 92.784C188.56 93.7227 188.39 94.672 188.39 95.632C188.39 96.6773 188.571 97.6053 188.934 98.416C189.318 99.2053 189.83 99.888 190.47 100.464C191.131 101.019 191.899 101.488 192.774 101.872C193.648 102.235 194.587 102.512 195.59 102.704C196.614 102.896 197.67 103.024 198.758 103.088L197.254 107.472C195.91 107.387 194.598 107.173 193.318 106.832C192.059 106.491 190.875 106.021 189.766 105.424C188.656 104.827 187.686 104.101 186.854 103.248C186.043 102.373 185.392 101.381 184.902 100.272C184.432 99.1413 184.198 97.8827 184.198 96.496C184.198 94.96 184.443 93.552 184.934 92.272C185.424 90.9707 186.032 89.84 186.758 88.88C187.504 87.8987 188.24 87.1413 188.966 86.608C188.368 86.6933 187.643 86.7787 186.79 86.864C185.958 86.9493 185.051 87.056 184.07 87.184C183.11 87.2907 182.128 87.408 181.126 87.536C180.123 87.664 179.152 87.8133 178.214 87.984C177.296 88.1333 176.464 88.2827 175.718 88.432L175.302 84.048ZM196.774 89.36C197.051 89.744 197.339 90.2027 197.638 90.736C197.958 91.248 198.267 91.7707 198.566 92.304C198.864 92.816 199.12 93.2853 199.334 93.712L196.902 94.8C196.496 93.904 196.102 93.1147 195.718 92.432C195.355 91.7493 194.918 91.056 194.406 90.352L196.774 89.36ZM200.358 87.888C200.635 88.272 200.934 88.72 201.254 89.232C201.595 89.7227 201.926 90.2347 202.246 90.768C202.566 91.28 202.832 91.7387 203.046 92.144L200.646 93.296C200.219 92.4427 199.803 91.6853 199.398 91.024C199.014 90.3627 198.555 89.68 198.022 88.976L200.358 87.888ZM225.99 80.208C225.968 80.3787 225.936 80.656 225.894 81.04C225.872 81.4027 225.851 81.776 225.83 82.16C225.808 82.5227 225.787 82.7893 225.766 82.96C225.744 83.3867 225.734 83.9627 225.734 84.688C225.734 85.392 225.734 86.1813 225.734 87.056C225.734 87.9307 225.734 88.816 225.734 89.712C225.755 90.5867 225.766 91.4187 225.766 92.208C225.787 92.976 225.798 93.616 225.798 94.128L221.798 92.784C221.798 92.3787 221.798 91.8453 221.798 91.184C221.798 90.5013 221.798 89.7653 221.798 88.976C221.798 88.1653 221.787 87.3653 221.766 86.576C221.766 85.7867 221.755 85.072 221.734 84.432C221.712 83.792 221.691 83.312 221.67 82.992C221.627 82.3307 221.574 81.7547 221.51 81.264C221.446 80.752 221.392 80.4 221.35 80.208H225.99ZM207.91 84.176C208.848 84.176 209.915 84.1653 211.11 84.144C212.304 84.1227 213.552 84.1013 214.854 84.08C216.155 84.0587 217.435 84.0373 218.694 84.016C219.952 83.9947 221.136 83.984 222.246 83.984C223.355 83.9627 224.315 83.952 225.126 83.952C225.936 83.952 226.822 83.952 227.782 83.952C228.742 83.9307 229.691 83.92 230.63 83.92C231.568 83.92 232.422 83.92 233.19 83.92C233.979 83.92 234.587 83.92 235.014 83.92L234.982 87.696C233.979 87.6533 232.656 87.6213 231.014 87.6C229.371 87.5573 227.366 87.536 224.998 87.536C223.547 87.536 222.075 87.5573 220.582 87.6C219.088 87.6213 217.606 87.6533 216.134 87.696C214.662 87.7387 213.243 87.792 211.878 87.856C210.512 87.8987 209.222 87.9627 208.006 88.048L207.91 84.176ZM225.222 93.648C225.222 95.3973 225.008 96.848 224.582 98C224.176 99.152 223.558 100.027 222.726 100.624C221.894 101.2 220.859 101.488 219.622 101.488C219.024 101.488 218.395 101.36 217.734 101.104C217.094 100.848 216.496 100.475 215.942 99.984C215.387 99.4933 214.939 98.8853 214.598 98.16C214.278 97.4347 214.118 96.5813 214.118 95.6C214.118 94.384 214.406 93.3387 214.982 92.464C215.558 91.568 216.326 90.8747 217.286 90.384C218.267 89.872 219.344 89.616 220.518 89.616C221.926 89.616 223.099 89.936 224.038 90.576C224.998 91.1947 225.712 92.0373 226.182 93.104C226.672 94.1707 226.918 95.376 226.918 96.72C226.918 97.7653 226.747 98.8533 226.406 99.984C226.064 101.115 225.499 102.224 224.71 103.312C223.942 104.379 222.896 105.349 221.574 106.224C220.272 107.099 218.64 107.813 216.678 108.368L213.254 104.976C214.619 104.699 215.888 104.336 217.062 103.888C218.235 103.44 219.259 102.875 220.134 102.192C221.03 101.509 221.723 100.667 222.214 99.664C222.726 98.6613 222.982 97.456 222.982 96.048C222.982 95.024 222.726 94.256 222.214 93.744C221.723 93.232 221.126 92.976 220.422 92.976C220.016 92.976 219.622 93.072 219.238 93.264C218.854 93.456 218.544 93.744 218.31 94.128C218.075 94.512 217.958 94.9813 217.958 95.536C217.958 96.2613 218.203 96.848 218.694 97.296C219.206 97.7227 219.782 97.936 220.422 97.936C220.934 97.936 221.382 97.776 221.766 97.456C222.171 97.136 222.438 96.6027 222.566 95.856C222.694 95.1093 222.587 94.1067 222.246 92.848L225.222 93.648ZM240.082 98.064C241.064 98.064 241.938 98.2987 242.706 98.768C243.474 99.2373 244.093 99.8667 244.562 100.656C245.032 101.424 245.266 102.288 245.266 103.248C245.266 104.187 245.032 105.051 244.562 105.84C244.093 106.629 243.474 107.259 242.706 107.728C241.938 108.197 241.064 108.432 240.082 108.432C239.144 108.432 238.28 108.197 237.49 107.728C236.701 107.259 236.072 106.629 235.602 105.84C235.154 105.051 234.93 104.187 234.93 103.248C234.93 102.288 235.154 101.424 235.602 100.656C236.072 99.8667 236.701 99.2373 237.49 98.768C238.28 98.2987 239.144 98.064 240.082 98.064ZM240.114 106.128C240.904 106.128 241.576 105.851 242.13 105.296C242.685 104.72 242.962 104.037 242.962 103.248C242.962 102.715 242.834 102.235 242.578 101.808C242.322 101.36 241.97 101.008 241.522 100.752C241.096 100.496 240.626 100.368 240.114 100.368C239.581 100.368 239.101 100.496 238.674 100.752C238.248 101.008 237.896 101.36 237.618 101.808C237.362 102.235 237.234 102.715 237.234 103.248C237.234 103.781 237.362 104.272 237.618 104.72C237.896 105.147 238.248 105.488 238.674 105.744C239.101 106 239.581 106.128 240.114 106.128Z" fill="black"/>
</svg>
