<svg width="25" height="24" viewBox="0 0 25 24" fill="none" xmlns="http://www.w3.org/2000/svg">
<mask id="mask0_49_1002" style="mask-type:alpha" maskUnits="userSpaceOnUse" x="2" y="-1" width="21" height="25">
<path d="M18.7955 5.99849C18.7955 9.3122 16.1092 11.9985 12.7955 11.9985C9.48175 11.9985 6.79546 9.3122 6.79546 5.99849C6.79546 2.68478 9.48175 -0.00151062 12.7955 -0.00151062C16.1092 -0.00151062 18.7955 2.68478 18.7955 5.99849Z" fill="#006FFD"/>
<path d="M2.79541 19.999C2.79541 16.6853 5.4817 13.999 8.79541 13.999H16.7954C20.1091 13.999 22.7954 16.6853 22.7954 19.999V20.999C22.7954 22.6559 21.4523 23.999 19.7954 23.999H5.79541C4.13856 23.999 2.79541 22.6559 2.79541 20.999V19.999Z" fill="#006FFD"/>
</mask>
<g mask="url(#mask0_49_1002)">
<rect x="0.79541" y="-0.00260925" width="24" height="24" fill="#006FFD"/>
</g>
</svg>
