<svg width="278" height="109" viewBox="0 0 278 109" fill="none" xmlns="http://www.w3.org/2000/svg">
<path d="M1.856 3.456H30.272V7.04H1.856V3.456ZM13.92 0.831999H17.92V30.88H13.92V0.831999ZM12.928 19.104L16.192 20.448C15.4453 21.5147 14.592 22.5387 13.632 23.52C12.6933 24.5013 11.6693 25.4293 10.56 26.304C9.472 27.1573 8.33067 27.936 7.136 28.64C5.96267 29.3653 4.77867 29.984 3.584 30.496C3.37067 30.176 3.11467 29.8133 2.816 29.408C2.51733 29.0027 2.19733 28.608 1.856 28.224C1.51467 27.84 1.20533 27.52 0.928 27.264C2.10133 26.8587 3.264 26.368 4.416 25.792C5.568 25.1947 6.67733 24.544 7.744 23.84C8.81067 23.1147 9.78133 22.3573 10.656 21.568C11.552 20.7573 12.3093 19.936 12.928 19.104ZM19.008 19.232C19.648 20.0427 20.416 20.8427 21.312 21.632C22.2293 22.4 23.2213 23.1467 24.288 23.872C25.376 24.576 26.5067 25.216 27.68 25.792C28.8533 26.3467 30.0267 26.8267 31.2 27.232C30.9013 27.488 30.5707 27.808 30.208 28.192C29.8667 28.5973 29.536 29.0027 29.216 29.408C28.9173 29.8347 28.6613 30.2187 28.448 30.56C27.2533 30.0693 26.0693 29.4613 24.896 28.736C23.7227 28.032 22.5813 27.2533 21.472 26.4C20.384 25.5253 19.36 24.5973 18.4 23.616C17.4613 22.6347 16.6187 21.6213 15.872 20.576L19.008 19.232ZM8.288 16.352V18.304H23.808V16.352H8.288ZM8.288 11.744V13.664H23.808V11.744H8.288ZM4.544 8.864H27.744V21.184H4.544V8.864ZM33.824 3.872H62.144V7.552H33.824V3.872ZM45.856 0.799999H49.952V5.696H45.856V0.799999ZM41.312 13.088V16.768H54.688V13.088H41.312ZM37.472 9.792H58.752V20.096H37.472V9.792ZM53.44 22.976L56.96 21.312C57.6213 21.9733 58.3147 22.7093 59.04 23.52C59.7867 24.3307 60.4907 25.1413 61.152 25.952C61.8133 26.7413 62.3573 27.456 62.784 28.096L58.976 30.016C58.6347 29.3973 58.144 28.6827 57.504 27.872C56.8853 27.04 56.2133 26.1973 55.488 25.344C54.784 24.4907 54.1013 23.7013 53.44 22.976ZM45.92 18.752H49.952V26.848C49.952 27.808 49.8347 28.5547 49.6 29.088C49.3653 29.6213 48.8853 30.0267 48.16 30.304C47.456 30.5813 46.6133 30.7413 45.632 30.784C44.672 30.848 43.552 30.88 42.272 30.88C42.1867 30.304 42.016 29.6747 41.76 28.992C41.5253 28.3093 41.2907 27.712 41.056 27.2C41.5893 27.2213 42.144 27.2427 42.72 27.264C43.3173 27.264 43.84 27.264 44.288 27.264C44.7573 27.264 45.0667 27.264 45.216 27.264C45.4933 27.2427 45.6747 27.2 45.76 27.136C45.8667 27.072 45.92 26.9333 45.92 26.72V18.752ZM38.336 21.344L42.24 22.56C41.728 23.4133 41.1307 24.288 40.448 25.184C39.7653 26.0587 39.04 26.8907 38.272 27.68C37.5253 28.448 36.7787 29.1307 36.032 29.728C35.6053 29.3653 35.0827 28.96 34.464 28.512C33.8667 28.0853 33.344 27.744 32.896 27.488C33.6213 26.9547 34.3253 26.3467 35.008 25.664C35.712 24.96 36.352 24.2347 36.928 23.488C37.5253 22.72 37.9947 22.0053 38.336 21.344ZM84.7343 18.672C84.4996 18.8213 84.2489 18.9653 83.9823 19.104C83.7263 19.2427 83.4489 19.3867 83.1503 19.536C82.9049 19.664 82.6009 19.8133 82.2383 19.984C81.8863 20.1547 81.5023 20.3467 81.0863 20.56C80.6809 20.7627 80.2703 20.9813 79.8542 21.216C79.4383 21.44 79.0489 21.6693 78.6863 21.904C78.0249 22.3413 77.4863 22.7947 77.0703 23.264C76.6649 23.7333 76.4623 24.2507 76.4623 24.816C76.4623 25.3813 76.7396 25.8187 77.2943 26.128C77.8489 26.4267 78.6809 26.576 79.7903 26.576C80.3449 26.576 80.9316 26.5547 81.5503 26.512C82.1796 26.4587 82.7983 26.3893 83.4063 26.304C84.0143 26.208 84.5529 26.1013 85.0223 25.984L84.9903 28.288C84.5423 28.3627 84.0516 28.432 83.5183 28.496C82.9956 28.56 82.4249 28.608 81.8063 28.64C81.1983 28.672 80.5476 28.688 79.8542 28.688C79.0543 28.688 78.3129 28.624 77.6303 28.496C76.9583 28.3787 76.3663 28.1813 75.8543 27.904C75.3529 27.6267 74.9583 27.2533 74.6703 26.784C74.3929 26.3147 74.2543 25.7387 74.2543 25.056C74.2543 24.3733 74.4036 23.7547 74.7023 23.2C75.0009 22.6453 75.4063 22.1333 75.9183 21.664C76.4409 21.1947 77.0116 20.752 77.6303 20.336C78.0143 20.08 78.4196 19.8347 78.8463 19.6C79.2729 19.3547 79.6889 19.12 80.0943 18.896C80.5103 18.672 80.8943 18.4693 81.2463 18.288C81.6089 18.096 81.9076 17.9307 82.1423 17.792C82.4516 17.6107 82.7236 17.4453 82.9583 17.296C83.1929 17.1467 83.4169 16.9867 83.6303 16.816L84.7343 18.672ZM76.6863 15.248C76.9529 15.952 77.2303 16.6293 77.5183 17.28C77.8169 17.9307 78.1103 18.5387 78.3983 19.104C78.6969 19.6693 78.9689 20.176 79.2143 20.624L77.4063 21.696C77.1183 21.2053 76.8196 20.656 76.5103 20.048C76.2009 19.44 75.8916 18.8 75.5823 18.128C75.2729 17.4453 74.9743 16.7573 74.6863 16.064L76.6863 15.248ZM98.3663 22.768C98.3663 22.416 98.2756 22.096 98.0943 21.808C97.9236 21.52 97.6623 21.2907 97.3103 21.12C96.9689 20.9387 96.5423 20.848 96.0303 20.848C95.4543 20.848 94.8943 20.896 94.3503 20.992C93.8169 21.088 93.3369 21.2 92.9103 21.328C92.4943 21.4453 92.1476 21.5467 91.8703 21.632C91.6356 21.696 91.3743 21.7867 91.0863 21.904C90.8089 22.0107 90.5529 22.1067 90.3183 22.192L89.7103 19.904C89.9876 19.8827 90.2863 19.8453 90.6063 19.792C90.9263 19.7387 91.2143 19.6853 91.4703 19.632C91.8649 19.536 92.3129 19.4347 92.8143 19.328C93.3263 19.2107 93.8809 19.1093 94.4783 19.024C95.0756 18.9387 95.6836 18.896 96.3023 18.896C97.1556 18.896 97.9023 19.056 98.5423 19.376C99.1929 19.6853 99.6996 20.1333 100.062 20.72C100.425 21.3067 100.606 22.016 100.606 22.848C100.606 23.7013 100.42 24.4747 100.046 25.168C99.6729 25.8613 99.1449 26.4693 98.4623 26.992C97.7796 27.504 96.9743 27.9307 96.0463 28.272C95.1183 28.6133 94.0996 28.8587 92.9903 29.008L91.8383 27.024C92.8303 26.9067 93.7263 26.736 94.5263 26.512C95.3369 26.288 96.0249 26.0053 96.5903 25.664C97.1663 25.312 97.6036 24.9013 97.9023 24.432C98.2116 23.952 98.3663 23.3973 98.3663 22.768ZM92.0783 15.088C92.5369 15.184 93.0863 15.2747 93.7263 15.36C94.3769 15.4453 95.0436 15.52 95.7263 15.584C96.4196 15.648 97.0756 15.7013 97.6943 15.744C98.3236 15.776 98.8463 15.7973 99.2623 15.808L98.9423 17.776C98.4729 17.744 97.9236 17.7013 97.2943 17.648C96.6649 17.5947 96.0143 17.536 95.3423 17.472C94.6703 17.3973 94.0196 17.3227 93.3903 17.248C92.7716 17.1627 92.2276 17.0827 91.7583 17.008L92.0783 15.088ZM106.03 16.512C107.204 16.6507 108.281 16.736 109.262 16.768C110.254 16.7893 111.172 16.768 112.014 16.704C112.75 16.64 113.454 16.544 114.126 16.416C114.798 16.288 115.46 16.1227 116.11 15.92L116.366 17.76C115.79 17.92 115.166 18.0587 114.494 18.176C113.822 18.2933 113.134 18.384 112.43 18.448C111.609 18.512 110.66 18.544 109.582 18.544C108.516 18.5333 107.369 18.4693 106.142 18.352L106.03 16.512ZM105.742 19.872C106.713 19.9573 107.641 20.016 108.526 20.048C109.412 20.08 110.244 20.08 111.022 20.048C111.801 20.016 112.51 19.9733 113.15 19.92C114.014 19.8453 114.756 19.7387 115.374 19.6C115.993 19.4507 116.532 19.312 116.99 19.184L117.31 21.072C116.83 21.1893 116.302 21.3013 115.726 21.408C115.15 21.5147 114.537 21.6053 113.886 21.68C113.204 21.744 112.42 21.7973 111.534 21.84C110.66 21.872 109.737 21.8827 108.766 21.872C107.796 21.8507 106.825 21.8133 105.854 21.76L105.742 19.872ZM111.086 16.96C111.012 16.6613 110.926 16.368 110.83 16.08C110.734 15.7813 110.628 15.4773 110.51 15.168L112.67 14.928C112.734 15.4293 112.814 15.9253 112.91 16.416C113.017 16.896 113.134 17.36 113.262 17.808C113.401 18.256 113.534 18.688 113.662 19.104C113.79 19.4667 113.956 19.8827 114.158 20.352C114.372 20.8107 114.601 21.2747 114.846 21.744C115.092 22.2027 115.337 22.6187 115.582 22.992C115.689 23.1413 115.796 23.2853 115.902 23.424C116.02 23.552 116.153 23.68 116.302 23.808L115.326 25.28C115.028 25.216 114.654 25.152 114.206 25.088C113.769 25.024 113.31 24.9653 112.83 24.912C112.361 24.8587 111.929 24.8107 111.534 24.768L111.694 23.248C112.025 23.28 112.382 23.312 112.766 23.344C113.161 23.376 113.476 23.408 113.71 23.44C113.284 22.7253 112.916 22.0267 112.606 21.344C112.308 20.6613 112.057 20.0267 111.854 19.44C111.726 19.0667 111.62 18.7467 111.534 18.48C111.449 18.2027 111.369 17.9467 111.294 17.712C111.23 17.4667 111.161 17.216 111.086 16.96ZM108.814 23.584C108.622 23.8507 108.457 24.128 108.318 24.416C108.18 24.6933 108.11 25.008 108.11 25.36C108.11 25.9467 108.382 26.3733 108.926 26.64C109.481 26.896 110.286 27.024 111.342 27.024C112.1 27.024 112.814 26.992 113.486 26.928C114.169 26.864 114.793 26.7787 115.358 26.672L115.246 28.704C114.692 28.8 114.068 28.8747 113.374 28.928C112.681 28.9813 112.009 29.008 111.358 29.008C110.292 29.008 109.369 28.896 108.59 28.672C107.822 28.448 107.225 28.1013 106.798 27.632C106.372 27.152 106.153 26.5333 106.142 25.776C106.132 25.264 106.196 24.8053 106.334 24.4C106.484 23.984 106.649 23.584 106.83 23.2L108.814 23.584ZM128.494 17.856C128.473 18.0053 128.446 18.2347 128.414 18.544C128.382 18.8427 128.366 19.1307 128.366 19.408C128.366 19.5893 128.366 19.824 128.366 20.112C128.366 20.4 128.366 20.704 128.366 21.024C128.366 21.3333 128.366 21.6107 128.366 21.856C128.366 22.1867 128.377 22.592 128.398 23.072C128.43 23.5413 128.457 24.032 128.478 24.544C128.51 25.0453 128.537 25.52 128.558 25.968C128.59 26.4053 128.606 26.752 128.606 27.008C128.606 27.4027 128.521 27.7707 128.35 28.112C128.18 28.4533 127.892 28.7307 127.486 28.944C127.081 29.1573 126.521 29.264 125.806 29.264C125.166 29.264 124.574 29.1733 124.03 28.992C123.497 28.8107 123.07 28.5333 122.75 28.16C122.441 27.7867 122.286 27.3227 122.286 26.768C122.286 26 122.601 25.3867 123.23 24.928C123.86 24.4587 124.756 24.224 125.918 24.224C126.622 24.224 127.294 24.3147 127.934 24.496C128.574 24.6667 129.172 24.8907 129.726 25.168C130.281 25.4347 130.782 25.728 131.23 26.048C131.678 26.368 132.062 26.672 132.382 26.96L131.278 28.704C130.969 28.384 130.612 28.0533 130.206 27.712C129.801 27.3707 129.358 27.0613 128.878 26.784C128.409 26.496 127.902 26.2613 127.358 26.08C126.825 25.8987 126.265 25.808 125.678 25.808C125.166 25.808 124.772 25.888 124.494 26.048C124.228 26.1973 124.094 26.4053 124.094 26.672C124.094 26.9067 124.228 27.104 124.494 27.264C124.761 27.4133 125.118 27.488 125.566 27.488C125.929 27.488 126.196 27.3973 126.366 27.216C126.548 27.024 126.638 26.7413 126.638 26.368C126.638 26.08 126.628 25.7387 126.606 25.344C126.596 24.9493 126.574 24.5387 126.542 24.112C126.521 23.6747 126.5 23.248 126.478 22.832C126.468 22.416 126.462 22.0373 126.462 21.696C126.462 21.4933 126.462 21.2533 126.462 20.976C126.462 20.688 126.462 20.4053 126.462 20.128C126.462 19.8507 126.462 19.6213 126.462 19.44C126.462 19.1307 126.446 18.8267 126.414 18.528C126.393 18.2293 126.366 18.0053 126.334 17.856H128.494ZM127.502 20.176C127.684 20.176 127.956 20.1707 128.318 20.16C128.681 20.1493 129.081 20.1387 129.518 20.128C129.966 20.1067 130.414 20.08 130.862 20.048C131.31 20.016 131.71 19.9787 132.062 19.936L132.11 21.712C131.758 21.744 131.358 21.776 130.91 21.808C130.462 21.8293 130.014 21.8507 129.566 21.872C129.118 21.8827 128.713 21.8933 128.35 21.904C127.988 21.904 127.71 21.904 127.518 21.904L127.502 20.176ZM146.366 22.768C146.366 22.416 146.276 22.096 146.094 21.808C145.924 21.52 145.662 21.2907 145.31 21.12C144.969 20.9387 144.542 20.848 144.03 20.848C143.454 20.848 142.894 20.896 142.35 20.992C141.817 21.088 141.337 21.2 140.91 21.328C140.494 21.4453 140.148 21.5467 139.87 21.632C139.636 21.696 139.374 21.7867 139.086 21.904C138.809 22.0107 138.553 22.1067 138.318 22.192L137.71 19.904C137.988 19.8827 138.286 19.8453 138.606 19.792C138.926 19.7387 139.214 19.6853 139.47 19.632C139.865 19.536 140.313 19.4347 140.814 19.328C141.326 19.2107 141.881 19.1093 142.478 19.024C143.076 18.9387 143.684 18.896 144.302 18.896C145.156 18.896 145.902 19.056 146.542 19.376C147.193 19.6853 147.7 20.1333 148.062 20.72C148.425 21.3067 148.606 22.016 148.606 22.848C148.606 23.7013 148.42 24.4747 148.046 25.168C147.673 25.8613 147.145 26.4693 146.462 26.992C145.78 27.504 144.974 27.9307 144.046 28.272C143.118 28.6133 142.1 28.8587 140.99 29.008L139.838 27.024C140.83 26.9067 141.726 26.736 142.526 26.512C143.337 26.288 144.025 26.0053 144.59 25.664C145.166 25.312 145.604 24.9013 145.902 24.432C146.212 23.952 146.366 23.3973 146.366 22.768ZM140.078 15.088C140.537 15.184 141.086 15.2747 141.726 15.36C142.377 15.4453 143.044 15.52 143.726 15.584C144.42 15.648 145.076 15.7013 145.694 15.744C146.324 15.776 146.846 15.7973 147.262 15.808L146.942 17.776C146.473 17.744 145.924 17.7013 145.294 17.648C144.665 17.5947 144.014 17.536 143.342 17.472C142.67 17.3973 142.02 17.3227 141.39 17.248C140.772 17.1627 140.228 17.0827 139.758 17.008L140.078 15.088ZM238.483 19.2727V21.0909H233.227V19.2727H238.483ZM234.42 17.1818H236.841V25.3182C236.841 25.5417 236.875 25.7159 236.943 25.8409C237.011 25.9621 237.106 26.0473 237.227 26.0966C237.352 26.1458 237.496 26.1705 237.659 26.1705C237.773 26.1705 237.886 26.161 238 26.142C238.114 26.1193 238.201 26.1023 238.261 26.0909L238.642 27.892C238.521 27.9299 238.35 27.9735 238.131 28.0227C237.911 28.0758 237.644 28.108 237.33 28.1193C236.746 28.142 236.235 28.0644 235.795 27.8864C235.36 27.7083 235.021 27.4318 234.778 27.0568C234.536 26.6818 234.417 26.2083 234.42 25.6364V17.1818ZM243.909 28.1705C243.027 28.1705 242.263 27.983 241.619 27.608C240.979 27.2292 240.485 26.7027 240.136 26.0284C239.788 25.3504 239.614 24.5644 239.614 23.6705C239.614 22.7689 239.788 21.9811 240.136 21.3068C240.485 20.6288 240.979 20.1023 241.619 19.7273C242.263 19.3485 243.027 19.1591 243.909 19.1591C244.792 19.1591 245.553 19.3485 246.193 19.7273C246.837 20.1023 247.333 20.6288 247.682 21.3068C248.03 21.9811 248.205 22.7689 248.205 23.6705C248.205 24.5644 248.03 25.3504 247.682 26.0284C247.333 26.7027 246.837 27.2292 246.193 27.608C245.553 27.983 244.792 28.1705 243.909 28.1705ZM243.92 26.2955C244.322 26.2955 244.657 26.1818 244.926 25.9545C245.195 25.7235 245.398 25.4091 245.534 25.0114C245.674 24.6136 245.744 24.161 245.744 23.6534C245.744 23.1458 245.674 22.6932 245.534 22.2955C245.398 21.8977 245.195 21.5833 244.926 21.3523C244.657 21.1212 244.322 21.0057 243.92 21.0057C243.515 21.0057 243.174 21.1212 242.898 21.3523C242.625 21.5833 242.419 21.8977 242.278 22.2955C242.142 22.6932 242.074 23.1458 242.074 23.6534C242.074 24.161 242.142 24.6136 242.278 25.0114C242.419 25.4091 242.625 25.7235 242.898 25.9545C243.174 26.1818 243.515 26.2955 243.92 26.2955ZM251.972 25.4886L251.977 22.5852H252.33L255.125 19.2727H257.903L254.148 23.6591H253.574L251.972 25.4886ZM249.778 28V16.3636H252.199V28H249.778ZM255.233 28L252.665 24.1989L254.278 22.4886L258.068 28H255.233ZM260.726 31.2727C260.419 31.2727 260.131 31.2481 259.862 31.1989C259.597 31.1534 259.377 31.0947 259.203 31.0227L259.749 29.2159C260.033 29.303 260.288 29.3504 260.516 29.358C260.747 29.3655 260.946 29.3125 261.112 29.1989C261.283 29.0852 261.421 28.892 261.527 28.6193L261.669 28.25L258.538 19.2727H261.084L262.891 25.6818H262.982L264.805 19.2727H267.368L263.976 28.9432C263.813 29.4129 263.591 29.822 263.311 30.1705C263.035 30.5227 262.684 30.7936 262.26 30.983C261.836 31.1761 261.324 31.2727 260.726 31.2727ZM272.268 28.1705C271.386 28.1705 270.623 27.983 269.979 27.608C269.339 27.2292 268.844 26.7027 268.496 26.0284C268.147 25.3504 267.973 24.5644 267.973 23.6705C267.973 22.7689 268.147 21.9811 268.496 21.3068C268.844 20.6288 269.339 20.1023 269.979 19.7273C270.623 19.3485 271.386 19.1591 272.268 19.1591C273.151 19.1591 273.912 19.3485 274.553 19.7273C275.196 20.1023 275.693 20.6288 276.041 21.3068C276.39 21.9811 276.564 22.7689 276.564 23.6705C276.564 24.5644 276.39 25.3504 276.041 26.0284C275.693 26.7027 275.196 27.2292 274.553 27.608C273.912 27.983 273.151 28.1705 272.268 28.1705ZM272.28 26.2955C272.681 26.2955 273.017 26.1818 273.286 25.9545C273.554 25.7235 273.757 25.4091 273.893 25.0114C274.034 24.6136 274.104 24.161 274.104 23.6534C274.104 23.1458 274.034 22.6932 273.893 22.2955C273.757 21.8977 273.554 21.5833 273.286 21.3523C273.017 21.1212 272.681 21.0057 272.28 21.0057C271.875 21.0057 271.534 21.1212 271.257 21.3523C270.984 21.5833 270.778 21.8977 270.638 22.2955C270.501 22.6932 270.433 23.1458 270.433 23.6534C270.433 24.161 270.501 24.6136 270.638 25.0114C270.778 25.4091 270.984 25.7235 271.257 25.9545C271.534 26.1818 271.875 26.2955 272.28 26.2955ZM1.792 48.44H30.272V52.408H1.792V48.44ZM18.24 50.04C18.88 52.472 19.7653 54.744 20.896 56.856C22.0267 58.968 23.424 60.8133 25.088 62.392C26.7733 63.9707 28.736 65.2187 30.976 66.136C30.656 66.4133 30.3147 66.7653 29.952 67.192C29.6107 67.6187 29.2693 68.056 28.928 68.504C28.608 68.9733 28.3413 69.3893 28.128 69.752C25.6747 68.6 23.5627 67.1173 21.792 65.304C20.0427 63.4907 18.5707 61.3787 17.376 58.968C16.1813 56.536 15.1787 53.8587 14.368 50.936L18.24 50.04ZM13.824 39.832H18.016C17.9947 41.4533 17.9413 43.1707 17.856 44.984C17.792 46.776 17.632 48.6 17.376 50.456C17.12 52.312 16.704 54.1573 16.128 55.992C15.5733 57.8053 14.784 59.5547 13.76 61.24C12.7573 62.904 11.456 64.4613 9.856 65.912C8.27733 67.3627 6.34667 68.6427 4.064 69.752C3.76533 69.24 3.34933 68.6747 2.816 68.056C2.28267 67.4373 1.73867 66.9253 1.184 66.52C3.36 65.5387 5.184 64.408 6.656 63.128C8.128 61.8267 9.32267 60.4293 10.24 58.936C11.1787 57.4213 11.8933 55.8533 12.384 54.232C12.8747 52.5893 13.2053 50.936 13.376 49.272C13.568 47.608 13.6853 45.976 13.728 44.376C13.7707 42.776 13.8027 41.2613 13.824 39.832ZM39.456 50.744H54.208V54.072H39.456V50.744ZM33.728 57.944H62.368V61.464H33.728V57.944ZM46.048 55.864H49.984V65.752C49.984 66.7333 49.8453 67.5013 49.568 68.056C49.2907 68.6107 48.768 69.0267 48 69.304C47.232 69.5813 46.336 69.752 45.312 69.816C44.288 69.88 43.0933 69.912 41.728 69.912C41.6 69.3573 41.376 68.7173 41.056 67.992C40.7573 67.288 40.4587 66.68 40.16 66.168C40.8427 66.1893 41.536 66.2107 42.24 66.232C42.944 66.2533 43.5627 66.264 44.096 66.264C44.6507 66.264 45.0347 66.2533 45.248 66.232C45.568 66.232 45.7813 66.1893 45.888 66.104C45.9947 66.0187 46.048 65.8693 46.048 65.656V55.864ZM52.992 50.744H53.92L54.752 50.552L57.152 52.408C56.448 53.1973 55.6267 53.9867 54.688 54.776C53.7493 55.5653 52.768 56.312 51.744 57.016C50.72 57.6987 49.6853 58.296 48.64 58.808C48.4053 58.4667 48.0747 58.0827 47.648 57.656C47.2427 57.208 46.9013 56.8453 46.624 56.568C47.456 56.1413 48.2773 55.6293 49.088 55.032C49.92 54.4347 50.6773 53.8267 51.36 53.208C52.0427 52.568 52.5867 51.992 52.992 51.48V50.744ZM34.144 44.888H62.016V52.728H58.24V48.28H37.728V52.728H34.144V44.888ZM56.288 40.024L60.448 41.24C59.7227 42.3067 58.9653 43.352 58.176 44.376C57.3867 45.4 56.672 46.264 56.032 46.968L52.864 45.816C53.2907 45.2613 53.7067 44.6533 54.112 43.992C54.5387 43.3307 54.944 42.6587 55.328 41.976C55.712 41.272 56.032 40.6213 56.288 40.024ZM36.288 41.592L39.552 40.12C40.128 40.76 40.6933 41.4747 41.248 42.264C41.8027 43.032 42.208 43.7253 42.464 44.344L39.008 45.976C38.7733 45.3787 38.3893 44.6747 37.856 43.864C37.344 43.032 36.8213 42.2747 36.288 41.592ZM44.32 40.888L47.712 39.64C48.224 40.3227 48.7147 41.1013 49.184 41.976C49.6747 42.8507 50.0267 43.6187 50.24 44.28L46.624 45.688C46.4533 45.048 46.144 44.28 45.696 43.384C45.2693 42.4667 44.8107 41.6347 44.32 40.888ZM78.5103 54.408C78.4463 54.632 78.3769 54.8987 78.3023 55.208C78.2383 55.5067 78.1903 55.7467 78.1583 55.928C78.0836 56.2907 77.9876 56.7333 77.8703 57.256C77.7636 57.7787 77.6463 58.3333 77.5183 58.92C77.3903 59.496 77.2569 60.056 77.1183 60.6C76.9689 61.1547 76.7929 61.7627 76.5903 62.424C76.3983 63.0853 76.1849 63.752 75.9503 64.424C75.7263 65.096 75.4969 65.7413 75.2623 66.36C75.0276 66.9787 74.7983 67.528 74.5743 68.008L72.3343 67.256C72.5796 66.8507 72.8303 66.3547 73.0863 65.768C73.3529 65.1813 73.6143 64.5573 73.8703 63.896C74.1263 63.224 74.3609 62.5573 74.5743 61.896C74.7876 61.224 74.9689 60.6107 75.1183 60.056C75.2143 59.672 75.3103 59.2827 75.4062 58.888C75.5023 58.4933 75.5876 58.1093 75.6623 57.736C75.7476 57.3627 75.8169 57.016 75.8703 56.696C75.9343 56.3653 75.9823 56.0827 76.0143 55.848C76.0463 55.5493 76.0676 55.2507 76.0783 54.952C76.0889 54.6533 76.0836 54.408 76.0623 54.216L78.5103 54.408ZM74.4303 56.808C75.0809 56.808 75.7583 56.776 76.4623 56.712C77.1663 56.648 77.8756 56.5573 78.5903 56.44C79.3049 56.312 80.0143 56.168 80.7183 56.008V58.008C80.0569 58.168 79.3529 58.3013 78.6063 58.408C77.8596 58.5147 77.1236 58.6 76.3983 58.664C75.6729 58.7173 75.0063 58.744 74.3983 58.744C74.0143 58.744 73.6676 58.7387 73.3583 58.728C73.0489 58.7067 72.7503 58.6907 72.4622 58.68L72.4143 56.68C72.8303 56.7227 73.1876 56.7547 73.4863 56.776C73.7849 56.7973 74.0996 56.808 74.4303 56.808ZM79.4543 59.256C79.9023 59.2027 80.3983 59.1653 80.9423 59.144C81.4863 59.112 82.0143 59.096 82.5263 59.096C82.9849 59.096 83.4489 59.1067 83.9183 59.128C84.3983 59.1493 84.8729 59.1867 85.3423 59.24L85.2943 61.16C84.8996 61.1067 84.4623 61.0587 83.9823 61.016C83.5129 60.9733 83.0329 60.952 82.5423 60.952C81.9876 60.952 81.4596 60.968 80.9583 61C80.4569 61.0213 79.9556 61.064 79.4543 61.128V59.256ZM80.3183 63.272C80.2543 63.496 80.2009 63.7307 80.1583 63.976C80.1156 64.2213 80.0943 64.4293 80.0943 64.6C80.0943 64.7813 80.1316 64.9467 80.2063 65.096C80.2809 65.2453 80.3983 65.3787 80.5583 65.496C80.7183 65.6027 80.9369 65.688 81.2143 65.752C81.5023 65.8053 81.8596 65.832 82.2863 65.832C82.8196 65.832 83.3636 65.8053 83.9183 65.752C84.4729 65.6987 85.0383 65.6187 85.6143 65.512L85.5343 67.544C85.0863 67.608 84.5903 67.6613 84.0463 67.704C83.5023 67.7573 82.9103 67.784 82.2703 67.784C80.9263 67.784 79.8969 67.56 79.1823 67.112C78.4783 66.664 78.1263 66.04 78.1263 65.24C78.1263 64.8667 78.1529 64.4933 78.2063 64.12C78.2703 63.7467 78.3343 63.4053 78.3983 63.096L80.3183 63.272ZM83.6303 54.872C83.7689 55.064 83.9129 55.2933 84.0623 55.56C84.2223 55.8267 84.3769 56.0933 84.5263 56.36C84.6756 56.6267 84.7983 56.8613 84.8943 57.064L83.6143 57.624C83.5076 57.4 83.3849 57.1547 83.2463 56.888C83.1076 56.6213 82.9636 56.3547 82.8143 56.088C82.6649 55.8213 82.5156 55.592 82.3663 55.4L83.6303 54.872ZM85.5183 54.152C85.6676 54.344 85.8223 54.5787 85.9823 54.856C86.1423 55.1227 86.2969 55.3893 86.4463 55.656C86.6063 55.912 86.7289 56.136 86.8143 56.328L85.5503 56.872C85.3796 56.5307 85.1769 56.152 84.9423 55.736C84.7076 55.32 84.4783 54.9627 84.2543 54.664L85.5183 54.152ZM91.5663 55.56C91.5236 55.752 91.4863 55.9707 91.4543 56.216C91.4329 56.4613 91.4116 56.7013 91.3903 56.936C91.3796 57.1707 91.3743 57.3627 91.3743 57.512C91.3636 57.864 91.3583 58.2267 91.3583 58.6C91.3689 58.9733 91.3796 59.3573 91.3903 59.752C91.4116 60.136 91.4383 60.52 91.4703 60.904C91.5449 61.672 91.6516 62.3493 91.7903 62.936C91.9289 63.5227 92.1103 63.9813 92.3343 64.312C92.5583 64.632 92.8409 64.792 93.1823 64.792C93.3636 64.792 93.5396 64.6907 93.7103 64.488C93.8916 64.2853 94.0516 64.024 94.1903 63.704C94.3396 63.3733 94.4676 63.0267 94.5743 62.664C94.6916 62.3013 94.7929 61.96 94.8783 61.64L96.4783 63.592C96.1263 64.52 95.7743 65.2613 95.4223 65.816C95.0809 66.36 94.7236 66.7547 94.3503 67C93.9769 67.2347 93.5716 67.352 93.1343 67.352C92.5583 67.352 92.0089 67.16 91.4863 66.776C90.9743 66.392 90.5369 65.7733 90.1743 64.92C89.8116 64.056 89.5556 62.9093 89.4062 61.48C89.3529 60.9893 89.3103 60.472 89.2783 59.928C89.2569 59.384 89.2409 58.8667 89.2303 58.376C89.2303 57.8853 89.2303 57.48 89.2303 57.16C89.2303 56.936 89.2196 56.6693 89.1983 56.36C89.1769 56.0507 89.1449 55.7733 89.1023 55.528L91.5663 55.56ZM99.5663 55.928C99.8649 56.2907 100.153 56.7333 100.43 57.256C100.708 57.7787 100.964 58.3387 101.198 58.936C101.433 59.5333 101.641 60.1467 101.822 60.776C102.004 61.3947 102.148 62.0027 102.254 62.6C102.372 63.1867 102.446 63.7253 102.478 64.216L100.366 65.032C100.313 64.3813 100.217 63.672 100.078 62.904C99.9396 62.136 99.7529 61.3627 99.5183 60.584C99.2836 59.8053 99.0009 59.0693 98.6703 58.376C98.3503 57.6827 97.9716 57.0853 97.5343 56.584L99.5663 55.928ZM110.686 54.472C110.644 54.6747 110.596 54.8987 110.542 55.144C110.489 55.3787 110.441 55.5973 110.398 55.8C110.356 56.0347 110.302 56.3013 110.238 56.6C110.174 56.888 110.11 57.1813 110.046 57.48C109.993 57.768 109.934 58.0507 109.87 58.328C109.764 58.7867 109.63 59.32 109.47 59.928C109.31 60.536 109.124 61.192 108.91 61.896C108.697 62.5893 108.457 63.288 108.19 63.992C107.924 64.696 107.641 65.384 107.342 66.056C107.044 66.7173 106.724 67.3147 106.382 67.848L104.302 67.016C104.676 66.5147 105.022 65.9547 105.342 65.336C105.673 64.7067 105.972 64.0667 106.238 63.416C106.505 62.7547 106.74 62.104 106.942 61.464C107.156 60.8133 107.337 60.2107 107.486 59.656C107.646 59.1013 107.769 58.6267 107.854 58.232C108.004 57.5067 108.121 56.808 108.206 56.136C108.292 55.464 108.324 54.8293 108.302 54.232L110.686 54.472ZM116.19 56.088C116.446 56.44 116.708 56.872 116.974 57.384C117.252 57.8853 117.524 58.4187 117.79 58.984C118.057 59.5493 118.297 60.0933 118.51 60.616C118.724 61.1387 118.889 61.592 119.006 61.976L116.974 62.904C116.878 62.456 116.734 61.96 116.542 61.416C116.361 60.872 116.148 60.3227 115.902 59.768C115.657 59.2027 115.396 58.6693 115.118 58.168C114.852 57.6667 114.574 57.2453 114.286 56.904L116.19 56.088ZM104.19 57.752C104.478 57.7733 104.761 57.784 105.038 57.784C105.326 57.7733 105.614 57.7627 105.902 57.752C106.169 57.7413 106.489 57.7253 106.862 57.704C107.236 57.672 107.63 57.64 108.046 57.608C108.473 57.576 108.9 57.544 109.326 57.512C109.753 57.4693 110.148 57.4373 110.51 57.416C110.873 57.3947 111.172 57.384 111.406 57.384C111.982 57.384 112.484 57.48 112.91 57.672C113.337 57.8533 113.673 58.168 113.918 58.616C114.174 59.064 114.302 59.672 114.302 60.44C114.302 61.0693 114.276 61.752 114.222 62.488C114.169 63.224 114.073 63.928 113.934 64.6C113.806 65.272 113.625 65.8427 113.39 66.312C113.134 66.8667 112.782 67.2507 112.334 67.464C111.897 67.6773 111.374 67.784 110.766 67.784C110.468 67.784 110.142 67.7573 109.79 67.704C109.438 67.6613 109.124 67.6133 108.846 67.56L108.51 65.448C108.713 65.5013 108.937 65.5547 109.182 65.608C109.438 65.6613 109.678 65.704 109.902 65.736C110.137 65.768 110.324 65.784 110.462 65.784C110.729 65.784 110.964 65.736 111.166 65.64C111.369 65.5333 111.534 65.352 111.662 65.096C111.812 64.7867 111.934 64.3867 112.03 63.896C112.126 63.4053 112.196 62.8773 112.238 62.312C112.292 61.736 112.318 61.1867 112.318 60.664C112.318 60.2373 112.254 59.9227 112.126 59.72C112.009 59.5173 111.833 59.384 111.598 59.32C111.374 59.2453 111.097 59.208 110.766 59.208C110.521 59.208 110.19 59.2293 109.774 59.272C109.358 59.304 108.91 59.3467 108.43 59.4C107.961 59.4427 107.524 59.4907 107.118 59.544C106.713 59.5973 106.398 59.6347 106.174 59.656C105.94 59.6987 105.641 59.7467 105.278 59.8C104.926 59.8427 104.628 59.8853 104.382 59.928L104.19 57.752ZM115.902 53.864C116.041 54.056 116.185 54.2853 116.334 54.552C116.494 54.8187 116.649 55.0853 116.798 55.352C116.948 55.6187 117.076 55.8533 117.182 56.056L115.886 56.616C115.78 56.392 115.657 56.1467 115.518 55.88C115.38 55.6133 115.236 55.3467 115.086 55.08C114.937 54.8133 114.788 54.584 114.638 54.392L115.902 53.864ZM117.806 53.144C117.945 53.3467 118.094 53.5813 118.254 53.848C118.414 54.1147 118.569 54.3813 118.718 54.648C118.878 54.9147 119.001 55.1387 119.086 55.32L117.822 55.864C117.652 55.5333 117.449 55.16 117.214 54.744C116.98 54.3173 116.75 53.9547 116.526 53.656L117.806 53.144ZM131.15 55.464C130.894 55.6453 130.644 55.8373 130.398 56.04C130.153 56.232 129.94 56.408 129.758 56.568C129.492 56.7707 129.172 57.0213 128.798 57.32C128.436 57.608 128.052 57.912 127.646 58.232C127.252 58.5413 126.868 58.8453 126.494 59.144C126.121 59.4427 125.801 59.7093 125.534 59.944C125.257 60.1893 125.07 60.392 124.974 60.552C124.878 60.7013 124.878 60.8507 124.974 61C125.081 61.1493 125.278 61.352 125.566 61.608C125.801 61.8107 126.1 62.0613 126.462 62.36C126.836 62.6587 127.236 62.9893 127.662 63.352C128.1 63.704 128.542 64.072 128.99 64.456C129.449 64.8293 129.886 65.2027 130.302 65.576C130.729 65.9387 131.108 66.28 131.438 66.6L129.566 68.312C129.118 67.8107 128.654 67.3147 128.174 66.824C127.929 66.5787 127.609 66.28 127.214 65.928C126.83 65.5653 126.409 65.1867 125.95 64.792C125.502 64.3973 125.054 64.008 124.606 63.624C124.158 63.2293 123.753 62.8773 123.39 62.568C122.857 62.12 122.51 61.7093 122.35 61.336C122.201 60.9627 122.222 60.5947 122.414 60.232C122.617 59.8587 122.985 59.4533 123.518 59.016C123.838 58.7707 124.201 58.4827 124.606 58.152C125.012 57.8107 125.428 57.464 125.854 57.112C126.281 56.7493 126.686 56.4027 127.07 56.072C127.454 55.7307 127.78 55.432 128.046 55.176C128.281 54.9413 128.516 54.7013 128.75 54.456C128.985 54.2107 129.161 53.9973 129.278 53.816L131.15 55.464ZM204.922 63.2841V58.2727H207.342V67H205.018V65.4148H204.928C204.731 65.9261 204.403 66.3371 203.945 66.6477C203.49 66.9583 202.935 67.1136 202.28 67.1136C201.696 67.1136 201.183 66.9811 200.74 66.7159C200.297 66.4508 199.95 66.0739 199.7 65.5852C199.454 65.0966 199.329 64.5114 199.325 63.8295V58.2727H201.746V63.3977C201.75 63.9129 201.888 64.3201 202.161 64.6193C202.433 64.9186 202.799 65.0682 203.257 65.0682C203.549 65.0682 203.821 65.0019 204.075 64.8693C204.329 64.733 204.534 64.5322 204.689 64.267C204.848 64.0019 204.926 63.6742 204.922 63.2841ZM211.699 61.9545V67H209.278V58.2727H211.585V59.8125H211.688C211.881 59.3049 212.205 58.9034 212.659 58.608C213.114 58.3087 213.665 58.1591 214.312 58.1591C214.919 58.1591 215.447 58.2917 215.898 58.5568C216.348 58.822 216.699 59.2008 216.949 59.6932C217.199 60.1818 217.324 60.7652 217.324 61.4432V67H214.903V61.875C214.907 61.3409 214.771 60.9242 214.494 60.625C214.218 60.322 213.837 60.1705 213.352 60.1705C213.027 60.1705 212.739 60.2405 212.489 60.3807C212.242 60.5208 212.049 60.7254 211.909 60.9943C211.773 61.2595 211.703 61.5795 211.699 61.9545ZM219.232 67V58.2727H221.652V67H219.232ZM220.447 57.1477C220.088 57.1477 219.779 57.0284 219.521 56.7898C219.268 56.5473 219.141 56.2576 219.141 55.9205C219.141 55.5871 219.268 55.3011 219.521 55.0625C219.779 54.8201 220.088 54.6989 220.447 54.6989C220.807 54.6989 221.114 54.8201 221.368 55.0625C221.625 55.3011 221.754 55.5871 221.754 55.9205C221.754 56.2576 221.625 56.5473 221.368 56.7898C221.114 57.0284 220.807 57.1477 220.447 57.1477ZM231.727 58.2727L228.676 67H225.949L222.898 58.2727H225.455L227.267 64.517H227.358L229.165 58.2727H231.727ZM236.662 67.1705C235.764 67.1705 234.991 66.9886 234.344 66.625C233.7 66.2576 233.204 65.7386 232.855 65.0682C232.507 64.3939 232.332 63.5966 232.332 62.6761C232.332 61.7784 232.507 60.9905 232.855 60.3125C233.204 59.6345 233.694 59.1061 234.327 58.7273C234.963 58.3485 235.709 58.1591 236.565 58.1591C237.141 58.1591 237.677 58.2519 238.173 58.4375C238.673 58.6193 239.109 58.8939 239.48 59.2614C239.855 59.6288 240.147 60.0909 240.355 60.6477C240.563 61.2008 240.668 61.8485 240.668 62.5909V63.2557H233.298V61.7557H238.389C238.389 61.4072 238.313 61.0985 238.162 60.8295C238.01 60.5606 237.8 60.3504 237.531 60.1989C237.266 60.0436 236.957 59.9659 236.605 59.9659C236.238 59.9659 235.912 60.0511 235.628 60.2216C235.348 60.3883 235.128 60.6136 234.969 60.8977C234.81 61.178 234.728 61.4905 234.724 61.8352V63.2614C234.724 63.6932 234.804 64.0663 234.963 64.3807C235.126 64.6951 235.355 64.9375 235.651 65.108C235.946 65.2784 236.296 65.3636 236.702 65.3636C236.971 65.3636 237.217 65.3258 237.44 65.25C237.664 65.1742 237.855 65.0606 238.014 64.9091C238.173 64.7576 238.295 64.572 238.378 64.3523L240.616 64.5C240.503 65.0379 240.27 65.5076 239.918 65.9091C239.569 66.3068 239.118 66.6174 238.565 66.8409C238.016 67.0606 237.382 67.1705 236.662 67.1705ZM242.247 67V58.2727H244.594V59.7955H244.685C244.844 59.2538 245.111 58.8447 245.486 58.5682C245.861 58.2879 246.293 58.1477 246.781 58.1477C246.902 58.1477 247.033 58.1553 247.173 58.1705C247.313 58.1856 247.437 58.2064 247.543 58.233V60.3807C247.429 60.3466 247.272 60.3163 247.071 60.2898C246.87 60.2633 246.687 60.25 246.52 60.25C246.164 60.25 245.846 60.3277 245.565 60.483C245.289 60.6345 245.069 60.8466 244.906 61.1193C244.747 61.392 244.668 61.7064 244.668 62.0625V67H242.247ZM256.055 60.7614L253.839 60.8977C253.802 60.7083 253.72 60.5379 253.595 60.3864C253.47 60.2311 253.305 60.108 253.101 60.017C252.9 59.9223 252.66 59.875 252.379 59.875C252.004 59.875 251.688 59.9545 251.43 60.1136C251.173 60.2689 251.044 60.4773 251.044 60.7386C251.044 60.947 251.127 61.1231 251.294 61.267C251.461 61.411 251.747 61.5265 252.152 61.6136L253.732 61.9318C254.58 62.1061 255.213 62.3864 255.629 62.7727C256.046 63.1591 256.254 63.6667 256.254 64.2955C256.254 64.8674 256.086 65.3693 255.749 65.8011C255.415 66.233 254.957 66.5701 254.374 66.8125C253.794 67.0511 253.125 67.1705 252.368 67.1705C251.213 67.1705 250.292 66.9299 249.607 66.4489C248.925 65.964 248.525 65.3049 248.408 64.4716L250.788 64.3466C250.86 64.6989 251.035 64.9678 251.311 65.1534C251.588 65.3352 251.942 65.4261 252.374 65.4261C252.798 65.4261 253.139 65.3447 253.396 65.1818C253.658 65.0152 253.79 64.8011 253.794 64.5398C253.79 64.3201 253.697 64.1402 253.516 64C253.334 63.8561 253.054 63.7462 252.675 63.6705L251.163 63.3693C250.311 63.1989 249.677 62.9034 249.26 62.483C248.847 62.0625 248.641 61.5265 248.641 60.875C248.641 60.3144 248.792 59.8314 249.095 59.4261C249.402 59.0208 249.832 58.7083 250.385 58.4886C250.942 58.2689 251.593 58.1591 252.339 58.1591C253.442 58.1591 254.309 58.392 254.942 58.858C255.578 59.3239 255.949 59.9583 256.055 60.7614ZM257.778 67V58.2727H260.199V67H257.778ZM258.994 57.1477C258.634 57.1477 258.326 57.0284 258.068 56.7898C257.814 56.5473 257.688 56.2576 257.688 55.9205C257.688 55.5871 257.814 55.3011 258.068 55.0625C258.326 54.8201 258.634 54.6989 258.994 54.6989C259.354 54.6989 259.661 54.8201 259.915 55.0625C260.172 55.3011 260.301 55.5871 260.301 55.9205C260.301 56.2576 260.172 56.5473 259.915 56.7898C259.661 57.0284 259.354 57.1477 258.994 57.1477ZM266.78 58.2727V60.0909H261.524V58.2727H266.78ZM262.717 56.1818H265.138V64.3182C265.138 64.5417 265.172 64.7159 265.24 64.8409C265.308 64.9621 265.403 65.0473 265.524 65.0966C265.649 65.1458 265.793 65.1705 265.956 65.1705C266.07 65.1705 266.183 65.161 266.297 65.142C266.411 65.1193 266.498 65.1023 266.558 65.0909L266.939 66.892C266.818 66.9299 266.647 66.9735 266.428 67.0227C266.208 67.0758 265.941 67.108 265.626 67.1193C265.043 67.142 264.532 67.0644 264.092 66.8864C263.657 66.7083 263.318 66.4318 263.075 66.0568C262.833 65.6818 262.714 65.2083 262.717 64.6364V56.1818ZM269.851 70.2727C269.544 70.2727 269.256 70.2481 268.987 70.1989C268.722 70.1534 268.502 70.0947 268.328 70.0227L268.874 68.2159C269.158 68.303 269.413 68.3504 269.641 68.358C269.872 68.3655 270.071 68.3125 270.237 68.1989C270.408 68.0852 270.546 67.892 270.652 67.6193L270.794 67.25L267.663 58.2727H270.209L272.016 64.6818H272.107L273.93 58.2727H276.493L273.101 67.9432C272.938 68.4129 272.716 68.822 272.436 69.1705C272.16 69.5227 271.809 69.7936 271.385 69.983C270.961 70.1761 270.449 70.2727 269.851 70.2727ZM7.456 89.744H22.208V93.072H7.456V89.744ZM1.728 96.944H30.368V100.464H1.728V96.944ZM14.048 94.864H17.984V104.752C17.984 105.733 17.8453 106.501 17.568 107.056C17.2907 107.611 16.768 108.027 16 108.304C15.232 108.581 14.336 108.752 13.312 108.816C12.288 108.88 11.0933 108.912 9.728 108.912C9.6 108.357 9.376 107.717 9.056 106.992C8.75733 106.288 8.45867 105.68 8.16 105.168C8.84267 105.189 9.536 105.211 10.24 105.232C10.944 105.253 11.5627 105.264 12.096 105.264C12.6507 105.264 13.0347 105.253 13.248 105.232C13.568 105.232 13.7813 105.189 13.888 105.104C13.9947 105.019 14.048 104.869 14.048 104.656V94.864ZM20.992 89.744H21.92L22.752 89.552L25.152 91.408C24.448 92.1973 23.6267 92.9867 22.688 93.776C21.7493 94.5653 20.768 95.312 19.744 96.016C18.72 96.6987 17.6853 97.296 16.64 97.808C16.4053 97.4667 16.0747 97.0827 15.648 96.656C15.2427 96.208 14.9013 95.8453 14.624 95.568C15.456 95.1413 16.2773 94.6293 17.088 94.032C17.92 93.4347 18.6773 92.8267 19.36 92.208C20.0427 91.568 20.5867 90.992 20.992 90.48V89.744ZM2.144 83.888H30.016V91.728H26.24V87.28H5.728V91.728H2.144V83.888ZM24.288 79.024L28.448 80.24C27.7227 81.3067 26.9653 82.352 26.176 83.376C25.3867 84.4 24.672 85.264 24.032 85.968L20.864 84.816C21.2907 84.2613 21.7067 83.6533 22.112 82.992C22.5387 82.3307 22.944 81.6587 23.328 80.976C23.712 80.272 24.032 79.6213 24.288 79.024ZM4.288 80.592L7.552 79.12C8.128 79.76 8.69333 80.4747 9.248 81.264C9.80267 82.032 10.208 82.7253 10.464 83.344L7.008 84.976C6.77333 84.3787 6.38933 83.6747 5.856 82.864C5.344 82.032 4.82133 81.2747 4.288 80.592ZM12.32 79.888L15.712 78.64C16.224 79.3227 16.7147 80.1013 17.184 80.976C17.6747 81.8507 18.0267 82.6187 18.24 83.28L14.624 84.688C14.4533 84.048 14.144 83.28 13.696 82.384C13.2693 81.4667 12.8107 80.6347 12.32 79.888ZM38.656 84.624H60.928V88.368H38.656V84.624ZM37.312 94.032H59.68V97.744H37.312V94.032ZM33.632 104.208H62.56V107.952H33.632V104.208ZM46.048 78.8H50.08V106.032H46.048V78.8ZM38.656 79.216L42.624 80.112C42.176 81.7547 41.6213 83.376 40.96 84.976C40.2987 86.576 39.584 88.0693 38.816 89.456C38.048 90.8213 37.248 92.016 36.416 93.04C36.16 92.8053 35.8187 92.5493 35.392 92.272C34.9867 91.9733 34.56 91.6853 34.112 91.408C33.664 91.1307 33.28 90.9067 32.96 90.736C33.8133 89.84 34.592 88.7733 35.296 87.536C36.0213 86.2987 36.6613 84.9653 37.216 83.536C37.792 82.1067 38.272 80.6667 38.656 79.216ZM82.3894 93.472C82.3467 93.6747 82.2987 93.8987 82.2454 94.144C82.192 94.3787 82.144 94.5973 82.1014 94.8C82.0587 95.0347 82.0054 95.3013 81.9414 95.6C81.8774 95.888 81.8134 96.1813 81.7494 96.48C81.696 96.768 81.6374 97.0507 81.5734 97.328C81.4667 97.7867 81.3334 98.32 81.1734 98.928C81.0134 99.536 80.8267 100.192 80.6134 100.896C80.4 101.589 80.16 102.288 79.8934 102.992C79.6267 103.696 79.344 104.384 79.0454 105.056C78.7467 105.717 78.4267 106.315 78.0854 106.848L76.0054 106.016C76.3787 105.515 76.7254 104.955 77.0454 104.336C77.376 103.707 77.6747 103.067 77.9414 102.416C78.208 101.755 78.4427 101.104 78.6454 100.464C78.8587 99.8133 79.04 99.2107 79.1894 98.656C79.3494 98.1013 79.472 97.6267 79.5574 97.232C79.7067 96.5067 79.824 95.808 79.9094 95.136C79.9947 94.464 80.0267 93.8293 80.0054 93.232L82.3894 93.472ZM87.8934 95.088C88.1494 95.44 88.4107 95.872 88.6774 96.384C88.9547 96.8853 89.2267 97.4187 89.4934 97.984C89.76 98.5493 90 99.0933 90.2134 99.616C90.4267 100.139 90.592 100.592 90.7094 100.976L88.6774 101.904C88.5814 101.456 88.4374 100.96 88.2454 100.416C88.064 99.872 87.8507 99.3227 87.6054 98.768C87.36 98.2027 87.0987 97.6693 86.8214 97.168C86.5547 96.6667 86.2774 96.2453 85.9894 95.904L87.8934 95.088ZM75.8934 96.752C76.1814 96.7733 76.464 96.784 76.7414 96.784C77.0294 96.7733 77.3174 96.7627 77.6054 96.752C77.872 96.7413 78.192 96.7253 78.5654 96.704C78.9387 96.672 79.3334 96.64 79.7494 96.608C80.176 96.576 80.6027 96.544 81.0294 96.512C81.456 96.4693 81.8507 96.4373 82.2134 96.416C82.576 96.3947 82.8747 96.384 83.1094 96.384C83.6854 96.384 84.1867 96.48 84.6134 96.672C85.04 96.8533 85.376 97.168 85.6214 97.616C85.8774 98.064 86.0054 98.672 86.0054 99.44C86.0054 100.069 85.9787 100.752 85.9254 101.488C85.872 102.224 85.776 102.928 85.6374 103.6C85.5094 104.272 85.328 104.843 85.0934 105.312C84.8374 105.867 84.4854 106.251 84.0374 106.464C83.6 106.677 83.0774 106.784 82.4694 106.784C82.1707 106.784 81.8454 106.757 81.4934 106.704C81.1414 106.661 80.8267 106.613 80.5494 106.56L80.2134 104.448C80.416 104.501 80.64 104.555 80.8854 104.608C81.1414 104.661 81.3814 104.704 81.6054 104.736C81.84 104.768 82.0267 104.784 82.1654 104.784C82.432 104.784 82.6667 104.736 82.8694 104.64C83.072 104.533 83.2374 104.352 83.3654 104.096C83.5147 103.787 83.6374 103.387 83.7334 102.896C83.8294 102.405 83.8987 101.877 83.9414 101.312C83.9947 100.736 84.0214 100.187 84.0214 99.664C84.0214 99.2373 83.9574 98.9227 83.8294 98.72C83.712 98.5173 83.536 98.384 83.3014 98.32C83.0774 98.2453 82.8 98.208 82.4694 98.208C82.224 98.208 81.8934 98.2293 81.4774 98.272C81.0614 98.304 80.6134 98.3467 80.1334 98.4C79.664 98.4427 79.2267 98.4907 78.8214 98.544C78.416 98.5973 78.1014 98.6347 77.8774 98.656C77.6427 98.6987 77.344 98.7467 76.9814 98.8C76.6294 98.8427 76.3307 98.8853 76.0854 98.928L75.8934 96.752ZM87.6054 92.864C87.744 93.056 87.888 93.2853 88.0374 93.552C88.1974 93.8187 88.352 94.0853 88.5014 94.352C88.6507 94.6187 88.7787 94.8533 88.8854 95.056L87.5894 95.616C87.4827 95.392 87.36 95.1467 87.2214 94.88C87.0827 94.6133 86.9387 94.3467 86.7894 94.08C86.64 93.8133 86.4907 93.584 86.3414 93.392L87.6054 92.864ZM89.5094 92.144C89.648 92.3467 89.7974 92.5813 89.9574 92.848C90.1174 93.1147 90.272 93.3813 90.4214 93.648C90.5814 93.9147 90.704 94.1387 90.7894 94.32L89.5254 94.864C89.3547 94.5333 89.152 94.16 88.9174 93.744C88.6827 93.3173 88.4534 92.9547 88.2294 92.656L89.5094 92.144ZM102.853 94.464C102.597 94.6453 102.347 94.8373 102.101 95.04C101.856 95.232 101.643 95.408 101.461 95.568C101.195 95.7707 100.875 96.0213 100.501 96.32C100.139 96.608 99.7547 96.912 99.3494 97.232C98.9547 97.5413 98.5707 97.8453 98.1974 98.144C97.824 98.4427 97.504 98.7093 97.2374 98.944C96.96 99.1893 96.7734 99.392 96.6774 99.552C96.5814 99.7013 96.5814 99.8507 96.6774 100C96.784 100.149 96.9814 100.352 97.2694 100.608C97.504 100.811 97.8027 101.061 98.1654 101.36C98.5387 101.659 98.9387 101.989 99.3654 102.352C99.8027 102.704 100.245 103.072 100.693 103.456C101.152 103.829 101.589 104.203 102.005 104.576C102.432 104.939 102.811 105.28 103.141 105.6L101.269 107.312C100.821 106.811 100.357 106.315 99.8774 105.824C99.632 105.579 99.312 105.28 98.9174 104.928C98.5334 104.565 98.112 104.187 97.6534 103.792C97.2054 103.397 96.7574 103.008 96.3094 102.624C95.8614 102.229 95.456 101.877 95.0934 101.568C94.56 101.12 94.2134 100.709 94.0534 100.336C93.904 99.9627 93.9254 99.5947 94.1174 99.232C94.32 98.8587 94.688 98.4533 95.2214 98.016C95.5414 97.7707 95.904 97.4827 96.3094 97.152C96.7147 96.8107 97.1307 96.464 97.5574 96.112C97.984 95.7493 98.3894 95.4027 98.7734 95.072C99.1574 94.7307 99.4827 94.432 99.7494 94.176C99.984 93.9413 100.219 93.7013 100.453 93.456C100.688 93.2107 100.864 92.9973 100.981 92.816L102.853 94.464ZM119.349 93.44C119.339 93.5253 119.328 93.6533 119.317 93.824C119.307 93.984 119.296 94.1547 119.285 94.336C119.275 94.5173 119.264 94.6827 119.253 94.832C119.253 95.184 119.248 95.5253 119.237 95.856C119.237 96.1867 119.232 96.5013 119.221 96.8C119.221 97.088 119.216 97.3707 119.205 97.648C119.195 98.1173 119.179 98.608 119.157 99.12C119.136 99.632 119.109 100.107 119.077 100.544C119.045 100.981 119.003 101.339 118.949 101.616C118.864 102.032 118.715 102.315 118.501 102.464C118.288 102.603 117.973 102.672 117.557 102.672C117.376 102.672 117.125 102.661 116.805 102.64C116.496 102.608 116.187 102.571 115.877 102.528C115.579 102.485 115.333 102.453 115.141 102.432L115.189 100.656C115.435 100.709 115.701 100.757 115.989 100.8C116.288 100.843 116.512 100.864 116.661 100.864C116.821 100.864 116.939 100.843 117.013 100.8C117.099 100.747 117.147 100.645 117.157 100.496C117.189 100.293 117.211 100.037 117.221 99.728C117.243 99.4187 117.259 99.0827 117.269 98.72C117.291 98.3467 117.307 97.984 117.317 97.632C117.317 97.344 117.317 97.056 117.317 96.768C117.317 96.4693 117.317 96.1653 117.317 95.856C117.317 95.536 117.317 95.2213 117.317 94.912C117.317 94.7733 117.307 94.6133 117.285 94.432C117.275 94.24 117.264 94.0533 117.253 93.872C117.243 93.6907 117.227 93.5467 117.205 93.44H119.349ZM113.061 93.92C113.019 94.1867 112.992 94.448 112.981 94.704C112.971 94.9493 112.965 95.2427 112.965 95.584C112.965 95.872 112.96 96.256 112.949 96.736C112.949 97.216 112.944 97.7387 112.933 98.304C112.933 98.8587 112.928 99.4187 112.917 99.984C112.917 100.539 112.917 101.045 112.917 101.504C112.917 101.963 112.923 102.325 112.933 102.592C112.944 102.987 112.971 103.312 113.013 103.568C113.067 103.813 113.173 104.005 113.333 104.144C113.493 104.283 113.744 104.379 114.085 104.432C114.437 104.485 114.912 104.512 115.509 104.512C116.032 104.512 116.587 104.496 117.173 104.464C117.76 104.421 118.325 104.368 118.869 104.304C119.413 104.24 119.888 104.176 120.293 104.112L120.213 106.288C119.861 106.331 119.424 106.368 118.901 106.4C118.379 106.443 117.835 106.475 117.269 106.496C116.704 106.528 116.165 106.544 115.653 106.544C114.619 106.544 113.792 106.485 113.173 106.368C112.555 106.251 112.085 106.053 111.765 105.776C111.445 105.499 111.232 105.125 111.125 104.656C111.019 104.187 110.955 103.605 110.933 102.912C110.933 102.677 110.928 102.363 110.917 101.968C110.917 101.573 110.917 101.136 110.917 100.656C110.917 100.165 110.917 99.664 110.917 99.152C110.917 98.64 110.917 98.1547 110.917 97.696C110.928 97.2267 110.933 96.816 110.933 96.464C110.933 96.112 110.933 95.856 110.933 95.696C110.933 95.3653 110.923 95.056 110.901 94.768C110.88 94.48 110.848 94.1973 110.805 93.92H113.061ZM107.701 97.536C107.936 97.536 108.229 97.5253 108.581 97.504C108.933 97.4827 109.312 97.456 109.717 97.424C110.037 97.392 110.512 97.3493 111.141 97.296C111.771 97.232 112.485 97.1627 113.285 97.088C114.085 97.0133 114.917 96.9387 115.781 96.864C116.656 96.7787 117.493 96.704 118.293 96.64C119.093 96.576 119.803 96.5227 120.421 96.48C120.645 96.4587 120.896 96.4427 121.173 96.432C121.461 96.4107 121.723 96.3893 121.957 96.368V98.336C121.872 98.3253 121.733 98.32 121.541 98.32C121.349 98.32 121.147 98.3253 120.933 98.336C120.731 98.336 120.56 98.3413 120.421 98.352C120.005 98.3627 119.499 98.3893 118.901 98.432C118.304 98.464 117.664 98.512 116.981 98.576C116.299 98.6293 115.6 98.6933 114.885 98.768C114.181 98.832 113.504 98.9013 112.853 98.976C112.203 99.0507 111.616 99.1147 111.093 99.168C110.571 99.2213 110.155 99.264 109.845 99.296C109.675 99.3173 109.467 99.3493 109.221 99.392C108.976 99.424 108.731 99.4613 108.485 99.504C108.251 99.536 108.064 99.5627 107.925 99.584L107.701 97.536ZM127.269 94.56C127.227 94.752 127.189 94.9707 127.157 95.216C127.136 95.4613 127.115 95.7013 127.093 95.936C127.083 96.1707 127.077 96.3627 127.077 96.512C127.067 96.864 127.061 97.2267 127.061 97.6C127.072 97.9733 127.083 98.3573 127.093 98.752C127.115 99.136 127.141 99.52 127.173 99.904C127.248 100.672 127.355 101.349 127.493 101.936C127.632 102.523 127.813 102.981 128.037 103.312C128.261 103.632 128.544 103.792 128.885 103.792C129.067 103.792 129.243 103.691 129.413 103.488C129.595 103.285 129.755 103.024 129.893 102.704C130.043 102.373 130.171 102.027 130.277 101.664C130.395 101.301 130.496 100.96 130.581 100.64L132.181 102.592C131.829 103.52 131.477 104.261 131.125 104.816C130.784 105.36 130.427 105.755 130.053 106C129.68 106.235 129.275 106.352 128.837 106.352C128.261 106.352 127.712 106.16 127.189 105.776C126.677 105.392 126.24 104.773 125.877 103.92C125.515 103.056 125.259 101.909 125.109 100.48C125.056 99.9893 125.013 99.472 124.981 98.928C124.96 98.384 124.944 97.8667 124.933 97.376C124.933 96.8853 124.933 96.48 124.933 96.16C124.933 95.936 124.923 95.6693 124.901 95.36C124.88 95.0507 124.848 94.7733 124.805 94.528L127.269 94.56ZM135.269 94.928C135.568 95.2907 135.856 95.7333 136.133 96.256C136.411 96.7787 136.667 97.3387 136.901 97.936C137.136 98.5333 137.344 99.1467 137.525 99.776C137.707 100.395 137.851 101.003 137.957 101.6C138.075 102.187 138.149 102.725 138.181 103.216L136.069 104.032C136.016 103.381 135.92 102.672 135.781 101.904C135.643 101.136 135.456 100.363 135.221 99.584C134.987 98.8053 134.704 98.0693 134.373 97.376C134.053 96.6827 133.675 96.0853 133.237 95.584L135.269 94.928ZM225.102 99.7614L222.886 99.8977C222.848 99.7083 222.767 99.5379 222.642 99.3864C222.517 99.2311 222.352 99.108 222.148 99.017C221.947 98.9223 221.706 98.875 221.426 98.875C221.051 98.875 220.735 98.9545 220.477 99.1136C220.22 99.2689 220.091 99.4773 220.091 99.7386C220.091 99.947 220.174 100.123 220.341 100.267C220.508 100.411 220.794 100.527 221.199 100.614L222.778 100.932C223.627 101.106 224.259 101.386 224.676 101.773C225.093 102.159 225.301 102.667 225.301 103.295C225.301 103.867 225.133 104.369 224.795 104.801C224.462 105.233 224.004 105.57 223.42 105.812C222.841 106.051 222.172 106.17 221.415 106.17C220.259 106.17 219.339 105.93 218.653 105.449C217.972 104.964 217.572 104.305 217.455 103.472L219.835 103.347C219.907 103.699 220.081 103.968 220.358 104.153C220.634 104.335 220.989 104.426 221.42 104.426C221.845 104.426 222.186 104.345 222.443 104.182C222.705 104.015 222.837 103.801 222.841 103.54C222.837 103.32 222.744 103.14 222.562 103C222.381 102.856 222.1 102.746 221.722 102.67L220.21 102.369C219.358 102.199 218.723 101.903 218.307 101.483C217.894 101.062 217.688 100.527 217.688 99.875C217.688 99.3144 217.839 98.8314 218.142 98.4261C218.449 98.0208 218.879 97.7083 219.432 97.4886C219.989 97.2689 220.64 97.1591 221.386 97.1591C222.489 97.1591 223.356 97.392 223.989 97.858C224.625 98.3239 224.996 98.9583 225.102 99.7614ZM231.467 97.2727V99.0909H226.212V97.2727H231.467ZM227.405 95.1818H229.825V103.318C229.825 103.542 229.859 103.716 229.928 103.841C229.996 103.962 230.09 104.047 230.212 104.097C230.337 104.146 230.481 104.17 230.643 104.17C230.757 104.17 230.871 104.161 230.984 104.142C231.098 104.119 231.185 104.102 231.246 104.091L231.626 105.892C231.505 105.93 231.335 105.973 231.115 106.023C230.895 106.076 230.628 106.108 230.314 106.119C229.731 106.142 229.219 106.064 228.78 105.886C228.344 105.708 228.005 105.432 227.763 105.057C227.52 104.682 227.401 104.208 227.405 103.636V95.1818ZM238.641 102.284V97.2727H241.061V106H238.737V104.415H238.646C238.449 104.926 238.122 105.337 237.663 105.648C237.209 105.958 236.654 106.114 235.999 106.114C235.415 106.114 234.902 105.981 234.459 105.716C234.016 105.451 233.669 105.074 233.419 104.585C233.173 104.097 233.048 103.511 233.044 102.83V97.2727H235.464V102.398C235.468 102.913 235.607 103.32 235.879 103.619C236.152 103.919 236.518 104.068 236.976 104.068C237.268 104.068 237.54 104.002 237.794 103.869C238.048 103.733 238.252 103.532 238.408 103.267C238.567 103.002 238.644 102.674 238.641 102.284ZM246.213 106.142C245.55 106.142 244.95 105.972 244.412 105.631C243.878 105.286 243.454 104.78 243.139 104.114C242.829 103.443 242.673 102.621 242.673 101.648C242.673 100.648 242.834 99.8163 243.156 99.1534C243.478 98.4867 243.906 97.9886 244.44 97.6591C244.978 97.3258 245.567 97.1591 246.207 97.1591C246.696 97.1591 247.103 97.2424 247.429 97.4091C247.759 97.572 248.024 97.7765 248.224 98.0227C248.429 98.2652 248.584 98.5038 248.69 98.7386H248.764V94.3636H251.179V106H248.793V104.602H248.69C248.577 104.845 248.416 105.085 248.207 105.324C248.003 105.559 247.736 105.754 247.406 105.909C247.08 106.064 246.683 106.142 246.213 106.142ZM246.98 104.216C247.37 104.216 247.7 104.11 247.969 103.898C248.241 103.682 248.45 103.381 248.594 102.994C248.741 102.608 248.815 102.155 248.815 101.636C248.815 101.117 248.743 100.667 248.599 100.284C248.455 99.9015 248.247 99.6061 247.974 99.3977C247.702 99.1894 247.37 99.0852 246.98 99.0852C246.582 99.0852 246.247 99.1932 245.974 99.4091C245.702 99.625 245.495 99.9242 245.355 100.307C245.215 100.689 245.145 101.133 245.145 101.636C245.145 102.144 245.215 102.593 245.355 102.983C245.499 103.369 245.705 103.672 245.974 103.892C246.247 104.108 246.582 104.216 246.98 104.216ZM257.146 106.17C256.249 106.17 255.476 105.989 254.828 105.625C254.184 105.258 253.688 104.739 253.339 104.068C252.991 103.394 252.817 102.597 252.817 101.676C252.817 100.778 252.991 99.9905 253.339 99.3125C253.688 98.6345 254.179 98.1061 254.811 97.7273C255.447 97.3485 256.194 97.1591 257.05 97.1591C257.625 97.1591 258.161 97.2519 258.658 97.4375C259.158 97.6193 259.593 97.8939 259.964 98.2614C260.339 98.6288 260.631 99.0909 260.839 99.6477C261.048 100.201 261.152 100.848 261.152 101.591V102.256H253.783V100.756H258.874C258.874 100.407 258.798 100.098 258.646 99.8295C258.495 99.5606 258.285 99.3504 258.016 99.1989C257.75 99.0436 257.442 98.9659 257.089 98.9659C256.722 98.9659 256.396 99.0511 256.112 99.2216C255.832 99.3883 255.612 99.6136 255.453 99.8977C255.294 100.178 255.213 100.491 255.209 100.835V102.261C255.209 102.693 255.288 103.066 255.447 103.381C255.61 103.695 255.839 103.938 256.135 104.108C256.43 104.278 256.781 104.364 257.186 104.364C257.455 104.364 257.701 104.326 257.925 104.25C258.148 104.174 258.339 104.061 258.499 103.909C258.658 103.758 258.779 103.572 258.862 103.352L261.101 103.5C260.987 104.038 260.754 104.508 260.402 104.909C260.054 105.307 259.603 105.617 259.05 105.841C258.5 106.061 257.866 106.17 257.146 106.17ZM265.152 100.955V106H262.732V97.2727H265.038V98.8125H265.141C265.334 98.3049 265.658 97.9034 266.112 97.608C266.567 97.3087 267.118 97.1591 267.766 97.1591C268.372 97.1591 268.9 97.2917 269.351 97.5568C269.802 97.822 270.152 98.2008 270.402 98.6932C270.652 99.1818 270.777 99.7652 270.777 100.443V106H268.357V100.875C268.36 100.341 268.224 99.9242 267.947 99.625C267.671 99.322 267.29 99.1705 266.805 99.1705C266.48 99.1705 266.192 99.2405 265.942 99.3807C265.696 99.5208 265.502 99.7254 265.362 99.9943C265.226 100.259 265.156 100.58 265.152 100.955ZM277.327 97.2727V99.0909H272.071V97.2727H277.327ZM273.264 95.1818H275.685V103.318C275.685 103.542 275.719 103.716 275.787 103.841C275.855 103.962 275.95 104.047 276.071 104.097C276.196 104.146 276.34 104.17 276.503 104.17C276.616 104.17 276.73 104.161 276.844 104.142C276.957 104.119 277.045 104.102 277.105 104.091L277.486 105.892C277.365 105.93 277.194 105.973 276.974 106.023C276.755 106.076 276.488 106.108 276.173 106.119C275.59 106.142 275.079 106.064 274.639 105.886C274.204 105.708 273.865 105.432 273.622 105.057C273.38 104.682 273.26 104.208 273.264 103.636V95.1818Z" fill="black"/>
</svg>
