<svg width="25" height="24" viewBox="0 0 25 24" fill="none" xmlns="http://www.w3.org/2000/svg">
<mask id="mask0_49_1015" style="mask-type:alpha" maskUnits="userSpaceOnUse" x="0" y="1" width="25" height="22">
<path d="M3.64241 4.15537H21.9455C22.6645 4.15537 23.2528 3.56706 23.2528 2.84801C23.2528 2.12896 22.6645 1.54065 21.9455 1.54065H3.64241C2.92336 1.54065 2.33504 2.12896 2.33504 2.84801C2.33504 3.56706 2.92336 4.15537 3.64241 4.15537ZM23.462 6.50863C23.3444 5.90724 22.8083 5.46274 22.1808 5.46274H3.40708C2.77955 5.46274 2.24353 5.90724 2.12587 6.50863L0.818503 13.0454C0.66162 13.856 1.27608 14.6143 2.09972 14.6143H2.33504V21.1511C2.33504 21.8701 2.92336 22.4585 3.64241 22.4585H14.1013C14.8204 22.4585 15.4087 21.8701 15.4087 21.1511V14.6143H20.6381V21.1511C20.6381 21.8701 21.2264 22.4585 21.9455 22.4585C22.6645 22.4585 23.2528 21.8701 23.2528 21.1511V14.6143H23.4882C24.3118 14.6143 24.9263 13.856 24.7694 13.0454L23.462 6.50863ZM12.7939 19.8437H4.94977V14.6143H12.7939V19.8437Z" fill="black"/>
</mask>
<g mask="url(#mask0_49_1015)">
<rect x="0.793945" y="-0.00158691" width="24" height="24" fill="#006FFD"/>
</g>
</svg>
